<svg xmlns="http://www.w3.org/2000/svg" width="1493pt" height="251pt" viewBox="0 0 1493 251" version="1.1"><style>.style0{opacity:	1;fill:	#f7f7f7;}.style1{opacity:	1;fill:	#c8102e;}</style><g><path d=" M 123.25 0 L 131.4 0 C 143.67 0.61 155.94 2.52 167.58 6.55 C 185.59 12.63 201.9 23.31 215.19 36.85 C 207.99 43.81 200.8 50.78 193.6 57.74 C 180.69 44.76 164.09 35.33 146.03 31.93 C 122.06 27.28 96.04 31.02 75.46 44.56 C 56.67 56.98 41.24 75.34 34.62 97.08 C 29.37 114.5 29.14 133.41 33.78 150.99 C 39.87 173.98 55.84 193.5 75.49 206.47 C 95.04 219.32 119.54 223.31 142.46 219.71 C 161.75 216.82 179.74 207.27 193.57 193.59 C 200.81 200.4 207.98 207.3 215.2 214.15 C 197.11 232.49 173.36 245.41 147.8 249.32 C 141.52 250.34 135.16 250.86 128.8 251 L 123.3 251 C 106.65 250.65 89.99 247.26 74.81 240.34 C 47.61 228 25.19 205.68 12.32 178.77 C 0.73 154.42 -1.93 126.3 3.11 99.94 C 8.72 70.49 26.33 44.09 49.79 25.74 C 70.53 9.26 96.81 0.32 123.25 0 Z" class="style0"/><path d=" M 597.06 6 C 607.12 6 617.18 6 627.25 6.01 C 627.25 85.69 627.25 165.37 627.24 245.05 C 617.18 245.07 607.12 245.06 597.06 245.06 C 597.05 234.35 597.07 223.64 597.06 212.93 C 590.18 222.62 581.8 231.35 571.81 237.85 C 558.81 246.41 543.28 250.67 527.79 251 L 520.72 251 C 513.92 250.48 507.11 249.59 500.56 247.64 C 484.96 243.22 471.16 233.64 460.52 221.52 C 447.52 207.35 438.99 189.15 436.62 170.05 C 433.65 147.58 437.5 123.87 449.49 104.44 C 460.3 86.94 476.13 71.81 495.77 64.88 C 514.36 58.39 535.11 58.38 553.82 64.38 C 571.62 70.11 586.52 82.74 597.06 97.97 C 597.06 67.32 597.06 36.66 597.06 6 M 521.48 90.72 C 501.92 93.25 484.5 105.81 474.4 122.54 C 466.34 135.42 464.07 151.29 466.29 166.16 C 470.17 191.97 491.14 214.4 516.82 219.5 C 533.99 222.98 552.83 220.44 567.44 210.39 C 579.89 201.74 590 189.22 594.38 174.59 C 597.85 162.8 597.96 150.03 594.78 138.17 C 590.56 122.61 579.83 109.35 566.64 100.36 C 553.54 91.47 537.03 88.52 521.48 90.72 Z" class="style0"/><path d=" M 695.14 72.17 C 713.97 61.17 736.69 57.95 758.09 61.15 C 788.31 65.56 815.03 86.24 828.73 113.26 C 837.35 130.68 840.2 150.92 836.89 170.06 C 784.11 170.07 731.33 170.05 678.55 170.07 C 682.12 188.71 695.22 204.6 711.82 213.35 C 726.13 221.14 743.35 222.82 759.11 219.01 C 772.62 215.82 784.57 207.6 793.41 197.02 C 801.76 202.4 810.17 207.69 818.45 213.18 C 801.31 236.09 773.36 250.4 744.77 251 L 739.33 251 C 728.21 250.62 717.1 248.53 706.77 244.32 C 690.88 237.9 677.14 226.8 666.48 213.48 C 656.71 201.25 650.14 186.47 647.85 170.98 C 644.7 150.06 647.77 127.88 658.31 109.36 C 667.04 94.03 679.93 81.08 695.14 72.17 M 678.55 139.99 C 721.16 140 763.77 140 806.38 139.99 C 800.22 110.96 771.42 89.41 742.02 90.05 C 712.96 89.81 684.26 111.03 678.55 139.99 Z" class="style0"/><path d=" M 245.17 106.19 C 257.33 86.83 276.04 71.2 297.99 64.32 C 298 75.12 298 85.93 298 96.74 C 286.63 102.51 277.08 111.62 270.43 122.46 C 262.53 135.04 260.17 150.49 262.11 165.07 C 265.53 190.88 286.06 213.57 311.53 219.22 C 329.06 223.11 348.47 220.68 363.45 210.38 C 376.92 201.04 387.64 187.1 391.34 170.97 C 394.67 156.41 393.29 140.61 386.58 127.18 C 380.27 114.81 370.14 104.37 358.03 97.58 C 357.96 86.62 358.01 75.67 358.01 64.72 C 380.13 72.1 399.03 88.1 410.88 108.08 C 422.65 127.99 425.7 152.33 421.4 174.88 C 413.16 217.14 372.9 250.7 329.8 251 L 324.3 251 C 302.89 250.56 281.81 242.41 265.73 228.27 C 250.19 215.02 238.27 197.11 233.97 176.99 C 228.85 153.14 232.13 127.06 245.17 106.19 Z" class="style0"/></g><g><path d=" M 857.18 2.02 C 892.78 1.98 928.38 2.01 963.99 2 C 980.66 2.08 997.31 7.19 1010.94 16.85 C 1024.57 26.36 1035.27 40.6 1039.08 56.93 C 1042.58 71.99 1041.16 88.34 1034.25 102.26 C 1025.98 119.2 1010.39 131.79 993.14 138.84 C 1002.6 147.35 1009.09 158.47 1016.05 168.98 C 1033.36 195.64 1050.65 222.31 1067.96 248.97 C 1053.08 249 1038.21 249.04 1023.33 248.96 C 1006.31 222.55 989.17 196.22 972.11 169.85 C 968.57 164.51 965.45 158.73 960.44 154.58 C 951.83 147.09 940.14 144.33 928.97 144.08 C 917.37 144.04 905.78 144.06 894.19 144.07 C 894.18 179.04 894.19 214.02 894.18 248.99 C 881.85 249 869.51 249.01 857.18 248.99 C 857.18 166.66 857.19 84.34 857.18 2.02 M 894.19 39.07 C 894.18 61.71 894.19 84.35 894.18 106.99 C 916.13 107.02 938.07 106.99 960.01 107 C 973.23 107.54 986.96 102.9 996.01 93.01 C 1005.89 82.38 1006.07 64.33 996.44 53.49 C 988.13 44.12 975.53 39.06 963.1 39.07 C 940.13 39.06 917.16 39.05 894.19 39.07 Z" class="style1"/><path d=" M 1083.18 2.01 C 1141.45 1.99 1199.72 2 1258 2 C 1258 14.35 1258 26.7 1257.99 39.06 C 1212.06 39.08 1166.12 39.04 1120.19 39.07 C 1120.18 61.71 1120.19 84.35 1120.18 106.99 C 1156.1 107.02 1192.02 106.98 1227.94 107.01 C 1227.94 119.35 1227.95 131.7 1227.94 144.05 C 1192.02 144.09 1156.1 144.04 1120.19 144.07 C 1120.18 166.71 1120.19 189.35 1120.18 211.99 C 1166.12 212.02 1212.06 211.99 1258 212 C 1258 224.33 1258 236.66 1258 249 C 1199.72 249 1141.45 249.02 1083.18 248.98 C 1083.19 166.66 1083.19 84.34 1083.18 2.01 Z" class="style1"/><path d=" M 1276.18 2.01 C 1303.13 1.98 1330.07 2.01 1357.02 2 C 1367.02 2.04 1377.07 1.68 1387.01 3.11 C 1407.95 5.75 1428.05 14.34 1444.51 27.55 C 1457.24 37.79 1468.59 49.97 1476.84 64.14 C 1485.94 79.56 1491.08 97.18 1492.34 115.02 C 1493.89 135.72 1490.83 156.95 1482.11 175.87 C 1473.94 193.82 1461.12 209.41 1446.03 222 C 1425.73 239.06 1399.49 248.62 1373 248.97 C 1340.73 249.04 1308.45 249 1276.18 248.99 C 1276.19 166.66 1276.19 84.34 1276.18 2.01 M 1313.19 39.07 C 1313.18 96.71 1313.2 154.34 1313.18 211.98 C 1327.13 212.02 1341.07 211.99 1355.03 212 C 1366.07 211.93 1377.24 212.49 1388.12 210.13 C 1411.64 205.53 1432.01 189.59 1444.21 169.23 C 1454.91 151.35 1457.87 129.48 1454.28 109.12 C 1451.54 93.36 1443.81 78.66 1432.89 67.02 C 1421 54.04 1405.27 44.35 1387.92 40.88 C 1377.08 38.44 1365.92 39.16 1354.91 39.06 C 1341 39.07 1327.09 39.05 1313.19 39.07 Z" class="style1"/><path d=" M 313 39 C 323 39 333 39 343 39 C 343 78 343 117 343 156 C 333 156 323 156 313 156 C 313 117 313 78 313 39 Z" class="style1"/></g></svg>