<svg xmlns="http://www.w3.org/2000/svg" xmlns:xlink="http://www.w3.org/1999/xlink" version="1.1" x="0px" y="0px" width="508.6px" height="156.8px" viewBox="0 0 508.6 156.8" enable-background="new 0 0 508.6 156.8" xml:space="preserve"><style>.style0{fill:	#98D9F0;}.style1{fill:	#EE3226;}.style2{fill:	#78A23F;}.style3{fill:	#FCBA1B;}.style4{fill:	#F38194;}</style><g><path d="M70.8 91.6c4.8-7.8 5.4-8.7 5.4-8.8c0 0 0 0 0 0c0 0.1-0.4 0.6 8-12.9c-17.4-1.7-16.7-1.6-16.6-1.6 c0 0 0 0 0 0c-0.1 0-1.2-0.1-11.3-1.1c-29.7-2.9-39.5 33.5-39.5 33.5l0.1 0.1C17 100.9 56.5 114.6 70.8 91.6z" class="style0"/><path d="M81.8 73.8l0.1-0.1c0 0-18.7-37.4-49-32.6c-10.3 1.6-11.5 1.8-11.5 1.8c0 0 0 0 0 0c0.1 0 0.8-0.1-16.9 2.7 c11.9 13.6 11.4 13 11.3 13c0 0 0 0 0 0c0.1 0.1 0.9 1 7.7 8.8C43.7 90.5 81.8 73.8 81.8 73.8z" class="style1"/><path d="M107 4l-0.2-0.1c0 0-39.2 14.6-31.9 43c2.5 9.6 2.8 10.8 2.8 10.8c0 0 0 0 0 0c0-0.1-0.2-0.8 4.1 15.9 c13.9-10 13.3-9.6 13.3-9.6c0 0 0 0 0 0c0.1 0 1-0.7 9-6.5C127.9 40.5 107 4 107 4z" class="style2"/><path d="M61.3 22.9l-0.1 0c0 0-13.2 24.6 4.3 38.1c5.9 4.6 6.6 5.1 6.7 5.1c0 0 0 0 0 0c0 0-0.5-0.4 9.8 7.5 c2.3-11.5 2.2-11.1 2.2-11c0 0 0 0 0 0c0-0.1 0.2-0.8 1.5-7.5C89.6 35.5 61.3 22.9 61.3 22.9z" class="style3"/><path d="M80.8 92.6c0.4-6.8 0.4-7.6 0.4-7.6c0 0 0 0 0 0c0 0.1 0 0.6 0.6-11.2c-11.9 5.1-11.4 4.9-11.4 4.8 c0 0 0 0 0 0c-0.1 0-0.8 0.4-7.7 3.3C42.4 90.5 49 117.7 49 117.7l0.1 0.1C49.1 117.7 79.7 112.6 80.8 92.6z" class="style4"/></g><g><g><path d="M146.8 120c-1.1 1.7-2.5 3.3-4.1 4.8c-1.6 1.5-3.4 2.8-5.5 3.9c-2.1 1.1-4.4 2-6.9 2.7c-2.5 0.7-5.3 1-8.2 1 c-5 0-9.6-0.9-13.8-2.6c-4.2-1.7-7.9-4.1-10.9-7.2c-3-3.1-5.4-6.7-7.1-10.9c-1.7-4.2-2.6-8.9-2.6-13.9s0.9-9.7 2.6-13.9 c1.7-4.2 4.1-7.9 7.2-10.9s6.7-5.5 10.9-7.2c4.2-1.7 8.7-2.6 13.6-2.6c2.4 0 4.8 0.3 7.1 0.8c2.3 0.5 4.5 1.2 6.6 2.1 c2 0.9 3.9 2 5.6 3.3c1.7 1.3 3.1 2.7 4.2 4.3l-5.6 4.1c-0.7-1.1-1.6-2.1-2.7-3.2c-1.1-1.1-2.5-2-4.1-2.8c-1.6-0.8-3.2-1.5-5.1-2 c-1.8-0.5-3.8-0.7-5.9-0.7c-4.3 0-8.1 0.8-11.5 2.3c-3.4 1.5-6.3 3.6-8.6 6.3c-2.4 2.6-4.2 5.7-5.4 9.1c-1.2 3.5-1.9 7.1-1.9 11 c0 3.8 0.6 7.5 1.9 11c1.3 3.5 3.1 6.5 5.4 9.1c2.4 2.6 5.2 4.7 8.6 6.3c3.4 1.5 7.2 2.3 11.4 2.3c3.8 0 7.4-0.8 10.8-2.3 c3.4-1.6 6.3-4 8.6-7.5L146.8 120z"/><path d="M200.2 109c0 3.3-0.6 6.3-1.7 9.1c-1.1 2.8-2.7 5.2-4.8 7.3s-4.5 3.6-7.4 4.8c-2.9 1.1-6 1.7-9.4 1.7 c-3.4 0-6.5-0.6-9.3-1.7c-2.9-1.1-5.3-2.7-7.4-4.8c-2-2-3.6-4.5-4.8-7.3c-1.1-2.8-1.7-5.8-1.7-9.1c0-3.3 0.6-6.3 1.7-9.1 c1.1-2.8 2.7-5.2 4.8-7.3c2-2 4.5-3.6 7.4-4.8c2.9-1.1 6-1.7 9.3-1.7c3.4 0 6.6 0.6 9.4 1.7c2.9 1.1 5.3 2.7 7.4 4.8 c2 2 3.6 4.5 4.8 7.3C199.6 102.6 200.2 105.7 200.2 109z M193.5 109c0-2.4-0.4-4.7-1.2-6.8c-0.8-2.1-1.9-4-3.3-5.6 c-1.4-1.6-3.2-2.8-5.2-3.8s-4.3-1.4-6.9-1.4c-2.5 0-4.8 0.5-6.8 1.4c-2 0.9-3.7 2.2-5.2 3.8c-1.4 1.6-2.5 3.4-3.3 5.6 c-0.8 2.1-1.2 4.4-1.2 6.8s0.4 4.7 1.2 6.8c0.8 2.1 1.9 4 3.3 5.6c1.4 1.6 3.2 2.8 5.2 3.7c2 0.9 4.3 1.4 6.8 1.4 c2.5 0 4.8-0.5 6.9-1.4s3.8-2.1 5.2-3.7c1.4-1.6 2.5-3.4 3.3-5.6C193.1 113.7 193.5 111.4 193.5 109z"/><path d="M245.5 130.8c-0.1-1.2-0.2-2.5-0.3-3.9c-0.1-1.4-0.1-2.6-0.1-3.5h-0.2c-1.2 2.5-3.3 4.6-6.1 6.2c-2.8 1.6-5.7 2.4-8.9 2.4 c-5.5 0-9.7-1.6-12.4-4.9c-2.8-3.3-4.1-7.6-4.1-13V87.2h6.3v24.1c0 2.3 0.2 4.4 0.6 6.2s1 3.5 1.9 4.8c0.9 1.3 2.1 2.4 3.6 3.1 c1.5 0.7 3.4 1.1 5.7 1.1c1.7 0 3.3-0.3 4.9-1c1.6-0.7 3-1.7 4.2-3.1c1.2-1.4 2.2-3.2 3-5.3c0.7-2.1 1.1-4.7 1.1-7.6V87.2h6.3v34 c0 1.2 0 2.7 0.1 4.6c0.1 1.9 0.2 3.5 0.3 5H245.5z"/><path d="M267.8 92.2c-0.1-1.9-0.2-3.5-0.3-5h6.1c0.1 1.2 0.2 2.5 0.3 3.9c0.1 1.4 0.1 2.6 0.1 3.5h0.2c1.2-2.5 3.1-4.6 5.6-6.2 c2.5-1.6 5.3-2.4 8.4-2.4c0.8 0 1.5 0 2.2 0.1c0.7 0.1 1.3 0.2 2 0.4l-0.8 6.1c-0.4-0.1-1-0.2-1.9-0.4c-0.9-0.1-1.7-0.2-2.6-0.2 c-1.7 0-3.3 0.3-4.8 0.9c-1.6 0.6-2.9 1.6-4.1 2.9c-1.2 1.3-2.1 3-2.8 5.1c-0.7 2.1-1.1 4.6-1.1 7.5v22.3h-6.3v-34 C267.9 95.6 267.9 94 267.8 92.2z"/><path d="M324.6 97.5c-0.9-1.8-2.3-3.3-4.2-4.4c-1.9-1.1-4.1-1.7-6.5-1.7c-1.1 0-2.2 0.1-3.4 0.4c-1.1 0.2-2.1 0.7-3 1.2 c-0.9 0.6-1.6 1.3-2.1 2.1c-0.5 0.9-0.8 1.9-0.8 3.1c0 2 0.8 3.6 2.5 4.7c1.7 1.1 4.3 2 7.9 2.7c5.2 1.1 9 2.6 11.4 4.6 c2.5 2 3.7 4.7 3.7 8.2c0 2.5-0.5 4.6-1.4 6.3s-2.2 3.1-3.8 4.2c-1.6 1.1-3.3 1.9-5.3 2.3c-2 0.5-3.9 0.7-5.9 0.7 c-3.3 0-6.5-0.7-9.6-2c-3.1-1.4-5.7-3.5-7.6-6.4l5-3.7c1.1 1.9 2.8 3.5 4.9 4.8c2.2 1.3 4.6 2 7.2 2c1.4 0 2.7-0.1 3.9-0.4 c1.2-0.2 2.3-0.7 3.3-1.3c0.9-0.6 1.7-1.4 2.2-2.4c0.6-1 0.8-2.2 0.8-3.6c0-2.3-1.1-4-3.3-5.2c-2.2-1.1-5.4-2.2-9.5-3.2 c-1.3-0.3-2.7-0.7-4.1-1.2c-1.5-0.5-2.8-1.1-4.1-2s-2.3-2-3.1-3.4c-0.8-1.4-1.2-3.1-1.2-5.1c0-2.2 0.4-4.1 1.3-5.7 c0.9-1.6 2-2.9 3.5-3.9c1.5-1 3.1-1.8 5-2.3c1.9-0.5 3.8-0.7 5.8-0.7c3 0 6 0.7 8.8 2c2.9 1.4 5 3.3 6.4 5.8L324.6 97.5z"/><path d="M370.3 102.5c0-3.8-1-6.6-3-8.4c-2-1.8-4.9-2.8-8.7-2.8c-2.6 0-5 0.5-7.3 1.4c-2.2 0.9-4.1 2.2-5.7 3.7l-3.5-4.2 c1.8-1.8 4.2-3.3 7.1-4.5c2.9-1.2 6.3-1.8 10-1.8c2.4 0 4.6 0.3 6.6 1c2 0.7 3.8 1.6 5.4 2.9c1.6 1.3 2.8 3 3.6 4.9 c0.9 2 1.3 4.3 1.3 7V121c0 1.7 0.1 3.4 0.2 5.2c0.1 1.8 0.3 3.3 0.6 4.6h-5.7c-0.2-1.1-0.3-2.2-0.5-3.4c-0.1-1.2-0.2-2.5-0.2-3.6 h-0.2c-2 2.9-4.2 5-6.8 6.3c-2.5 1.3-5.5 1.9-9.1 1.9c-1.7 0-3.4-0.2-5.2-0.7c-1.8-0.5-3.4-1.2-4.8-2.3c-1.5-1.1-2.7-2.4-3.6-4.1 c-1-1.7-1.4-3.7-1.4-6.2c0-3.4 0.9-6 2.6-8c1.7-2 4-3.4 6.8-4.4c2.9-1 6.1-1.6 9.8-1.9c3.7-0.3 7.5-0.4 11.5-0.4V102.5z M368.4 109c-2.6 0-5.2 0.1-7.9 0.3c-2.6 0.2-5 0.7-7.2 1.3c-2.1 0.7-3.9 1.6-5.3 2.8c-1.4 1.2-2 2.9-2 4.9c0 1.6 0.3 2.9 0.9 3.9 c0.6 1.1 1.4 1.9 2.4 2.6c1 0.7 2.1 1.1 3.3 1.4s2.4 0.4 3.7 0.4c2.2 0 4.2-0.4 6-1.2c1.7-0.8 3.2-1.8 4.4-3.2 c1.2-1.3 2.1-2.9 2.7-4.6c0.6-1.7 0.9-3.6 0.9-5.5V109H368.4z"/><path d="M399.1 130.8h-6.3V60.3h6.3V130.8z"/><path d="M423.8 70.4c0 1.3-0.5 2.4-1.4 3.2s-2 1.3-3.1 1.3s-2.1-0.4-3.1-1.3s-1.4-1.9-1.4-3.2c0-1.3 0.5-2.4 1.4-3.2 c0.9-0.8 2-1.3 3.1-1.3s2.1 0.4 3.1 1.3C423.3 68 423.8 69.1 423.8 70.4z M422.5 130.8h-6.3V87.2h6.3V130.8z"/><path d="M459 92.5h-12.3v25.4c0 1.6 0.2 3 0.5 4c0.3 1.1 0.8 1.9 1.4 2.5c0.6 0.6 1.3 1 2.1 1.2c0.8 0.2 1.7 0.3 2.6 0.3 c0.9 0 1.8-0.1 2.7-0.4c1-0.2 1.9-0.6 2.7-1l0.3 5.5c-1.1 0.4-2.3 0.8-3.5 1c-1.2 0.2-2.5 0.3-4 0.3c-1.2 0-2.4-0.2-3.7-0.5 c-1.3-0.3-2.5-0.9-3.6-1.8c-1.1-0.9-2-2-2.7-3.5s-1.1-3.4-1.1-5.9V92.5h-9v-5.3h9V74.9h6.3v12.3H459V92.5z"/><path d="M483.8 124h0.2l13.5-36.8h6.9L482.7 142c-1.3 3.4-3 6-5 8.1c-2 2-4.9 3-8.7 3c-1.9 0-3.8-0.2-5.7-0.6l0.7-5.8 c1.5 0.5 3 0.7 4.7 0.7c2.2 0 3.9-0.7 5.1-2c1.2-1.3 2.3-3.2 3.3-5.7l3.5-9.1l-18.6-43.5h7.1L483.8 124z"/></g></g></svg>