<?xml version="1.0" encoding="utf-8"?>
<!-- Generator: Adobe Illustrator 18.0.0, SVG Export Plug-In . SVG Version: 6.00 Build 0)  -->
<!DOCTYPE svg PUBLIC "-//W3C//DTD SVG 1.1//EN" "http://www.w3.org/Graphics/SVG/1.1/DTD/svg11.dtd">
<svg version="1.1" xmlns="http://www.w3.org/2000/svg" xmlns:xlink="http://www.w3.org/1999/xlink" x="0px" y="0px" width="635px"
	 height="314.3px" viewBox="0 0 635 314.3" enable-background="new 0 0 635 314.3" xml:space="preserve">
<g id="Layer_1">
	
		<g id="svg8489" xmlns:rdf="http://www.w3.org/1999/02/22-rdf-syntax-ns#" xmlns:cc="http://creativecommons.org/ns#" xmlns:dc="http://purl.org/dc/elements/1.1/" xmlns:svg="http://www.w3.org/2000/svg">
		<g>
			<path d="M378.982,232.833c-2.304,1.152-6.912,2.304-12.816,2.304c-13.682,0-23.979-8.641-23.979-24.554
				c0-15.193,10.297-25.49,25.347-25.49c6.048,0,9.864,1.296,11.521,2.16l-1.512,5.112c-2.376-1.152-5.76-2.016-9.793-2.016
				c-11.377,0-18.938,7.272-18.938,20.018c0,11.881,6.841,19.514,18.649,19.514c3.816,0,7.705-0.792,10.226-2.017L378.982,232.833z"
				/>
			<path d="M386.611,183.293h6.336v21.745h0.145c1.008-1.8,2.592-3.384,4.536-4.464c1.872-1.08,4.104-1.801,6.48-1.801
				c4.681,0,12.169,2.881,12.169,14.905v20.738h-6.336v-20.018c0-5.616-2.089-10.369-8.064-10.369c-4.105,0-7.346,2.88-8.498,6.337
				c-0.359,0.864-0.432,1.8-0.432,3.024v21.025h-6.336L386.611,183.293L386.611,183.293z"/>
			<path d="M445.869,234.417l-0.504-4.393h-0.217c-1.944,2.736-5.688,5.185-10.656,5.185c-7.057,0-10.658-4.969-10.658-10.009
				c0-8.425,7.489-13.033,20.955-12.961v-0.721c0-2.88-0.793-8.064-7.922-8.064c-3.24,0-6.624,1.008-9.072,2.593l-1.439-4.177
				c2.88-1.872,7.057-3.097,11.448-3.097c10.657,0,13.249,7.273,13.249,14.258v13.033c0,3.024,0.145,5.977,0.576,8.353H445.869z
				 M444.933,216.632c-6.913-0.145-14.761,1.08-14.761,7.849c0,4.104,2.735,6.048,5.977,6.048c4.535,0,7.416-2.88,8.424-5.832
				c0.217-0.648,0.36-1.368,0.36-2.017V216.632z"/>
			<path d="M461.273,210.943c0-4.465-0.144-8.065-0.287-11.377h5.688l0.289,5.977h0.144c2.593-4.249,6.696-6.77,12.386-6.77
				c8.424,0,14.761,7.129,14.761,17.714c0,12.529-7.633,18.722-15.841,18.722c-4.609,0-8.641-2.016-10.729-5.473h-0.144v18.938
				h-6.266L461.273,210.943L461.273,210.943z M467.539,220.231c0,0.937,0.144,1.801,0.287,2.593
				c1.152,4.393,4.969,7.416,9.506,7.416c6.695,0,10.584-5.472,10.584-13.465c0-6.984-3.672-12.961-10.369-12.961
				c-4.32,0-8.352,3.096-9.576,7.849c-0.217,0.792-0.432,1.729-0.432,2.592L467.539,220.231L467.539,220.231z"/>
			<path d="M509.874,189.557v10.01h9.073v4.824h-9.073v18.793c0,4.321,1.224,6.769,4.753,6.769c1.656,0,2.88-0.216,3.672-0.432
				l0.288,4.753c-1.224,0.504-3.169,0.863-5.616,0.863c-2.953,0-5.329-0.936-6.841-2.664c-1.8-1.872-2.448-4.968-2.448-9.072v-19.01
				h-5.4v-4.824h5.4v-8.354L509.874,189.557z"/>
			<path d="M529.17,218.144c0.144,8.568,5.616,12.097,11.953,12.097c4.536,0,7.271-0.792,9.648-1.8l1.08,4.536
				c-2.232,1.009-6.049,2.16-11.594,2.16c-10.729,0-17.137-7.057-17.137-17.569s6.192-18.794,16.346-18.794
				c11.377,0,14.4,10.01,14.4,16.418c0,1.296-0.144,2.304-0.215,2.952L529.17,218.144L529.17,218.144z M547.747,213.607
				c0.072-4.032-1.656-10.297-8.784-10.297c-6.409,0-9.217,5.904-9.721,10.297H547.747z"/>
			<path d="M561.713,210.438c0-4.104-0.072-7.632-0.289-10.872h5.545l0.217,6.84h0.287c1.584-4.68,5.4-7.633,9.649-7.633
				c0.72,0,1.224,0.072,1.8,0.217v5.977c-0.648-0.145-1.296-0.217-2.16-0.217c-4.465,0-7.633,3.385-8.496,8.137
				c-0.145,0.864-0.289,1.873-0.289,2.953v18.577h-6.264V210.438z"/>
		</g>
	</g>
	<g id="Layer_1_1_">
		<g id="_x23_d11140ff_2_">
			<path fill="#D11140" d="M503.5,53.9H531c13.4,0.5,27.4,2.8,38.8,10.5c5.6,3.4,10.1,8.4,13.2,14.1c3.8,6.4,5.4,13.9,6.5,21.1v13.7
				c-1.3,7.9-3.6,15.9-8.2,22.5c-5,7.2-12.2,13-20.5,16.1c-7.7,3.2-16.1,4.3-24.4,4.2c-22.8,0-45.6,0-68.5,0
				C479.8,122.1,491.6,88,503.5,53.9 M528.8,86.5c-2.2,5-3.9,10.3-5.9,15.4c-2.4,6.9-5.3,13.6-7.5,20.6c7.9,0.4,15.9,0.3,23.8,0.1
				c8.9,0.1,16.2-8.1,17.2-16.5c0.4-7.1-3.7-14.2-10-17.6C541.2,85.4,534.7,86.8,528.8,86.5z"/>
		</g>
		<g id="_x23_015596ff_2_">
			<path fill="#015596" d="M327.2,54.3c16.8,0,33.5,0,50.3,0c0,1,0,2,0,3c-3.8,0.7-8.1,0.4-11.4,2.9c-3.5,3.2-3,8.3-3.1,12.6
				c0.1,16.1,0,32.2,0,48.3c0,6,0.2,12.1,2.4,17.7c1.8,4.2,4.7,8.1,8.9,10c5.3,2.7,11.6,2.8,17.3,1.6c5.2-0.8,10-3.5,13.5-7.5
				c2.7-3.4,5.1-7.4,5-11.8c0.2-14.1,0-28.2,0-42.3c-0.1-7.3,0.3-14.7-0.2-22c-0.1-3-1.8-6-4.5-7.5c-2.7-1.1-5.6-1.5-8.5-2
				c0.1-1,0.1-2.1,0.2-3.1c16.7,0,33.4,0,50,0c0,1.1,0,2.1,0,3.2c-3.6,0.6-7.6,0.7-10.5,3.1c-1.7,1.8-2.8,4.1-2.6,6.6
				c-0.3,10.8-0.1,21.7,0,32.5c12.1,0.1,24.2,0.3,36.3-0.2c0.4-10,0.4-20.1,0-30.1c-0.3-2.8-0.1-6.1-2.3-8.2
				c-2.8-3.1-7.3-3.2-11.2-3.8c0-1,0-2.1,0-3.1c13.7,0,27.4,0,41.1,0c-9.3,26.3-18.4,52.6-27.7,78.9c0.3-8.3,0.6-16.5,0.2-24.8
				c-0.1-0.9-0.4-2.2-1.5-2.2c-11.6-0.2-23.3,0-35,0.1c-0.1,10.7-0.1,21.4-0.1,32.1c0.2,3.3-0.4,7.3,2.2,9.9c3,2.7,7.2,3.2,11.1,3.6
				c0,1.1,0,2.1,0,3.2c-14.7-0.5-29.5-0.2-44.3-0.2c-5.7-0.1-11.1,1.8-16.7,2.8H372c-6-1.2-12.2-2.4-17.5-5.7
				c-5.5-3.3-10.6-8-12.7-14.2c-2.2-5.7-2-12-2.2-18c0-15.4,0-30.9,0.1-46.3c0-4.3,0.1-9.1-2.6-12.8c-2.6-2.8-6.6-2.5-9.9-3.4
				L327.2,54.3L327.2,54.3z"/>
		</g>
	</g>
</g>
<g id="svg8489_1_">
	<g id="layer1" transform="translate(-348.90869,-258.47922)">
		<g id="g8264" transform="matrix(7.1863011,0,0,7.1863011,90.201851,-5256.8104)">
			<g>
				<defs>
					<polygon id="SVGID_1_" points="37.252,789.322 58.131,810.189 78.998,789.322 58.131,768.447 					"/>
				</defs>
				<clipPath id="SVGID_2_">
					<use xlink:href="#SVGID_1_"  overflow="visible"/>
				</clipPath>
				<g id="g7014" clip-path="url(#SVGID_2_)">
					
						<linearGradient id="path7016_1_" gradientUnits="userSpaceOnUse" x1="21.1073" y1="811.1724" x2="22.1073" y2="811.1724" gradientTransform="matrix(0 -299.9838 -299.9838 0 243396.6719 7142.0425)">
						<stop  offset="0" style="stop-color:#3792C1"/>
						<stop  offset="0.0156" style="stop-color:#3792C1"/>
						<stop  offset="0.0312" style="stop-color:#3893C2"/>
						<stop  offset="0.0469" style="stop-color:#3993C3"/>
						<stop  offset="0.0625" style="stop-color:#3A94C3"/>
						<stop  offset="0.0781" style="stop-color:#3B95C4"/>
						<stop  offset="0.0938" style="stop-color:#3C96C5"/>
						<stop  offset="0.1094" style="stop-color:#3D96C5"/>
						<stop  offset="0.125" style="stop-color:#3E97C6"/>
						<stop  offset="0.1406" style="stop-color:#3F98C7"/>
						<stop  offset="0.1562" style="stop-color:#4099C7"/>
						<stop  offset="0.1719" style="stop-color:#4199C8"/>
						<stop  offset="0.1875" style="stop-color:#429AC9"/>
						<stop  offset="0.2031" style="stop-color:#439BC9"/>
						<stop  offset="0.2188" style="stop-color:#449CCA"/>
						<stop  offset="0.2344" style="stop-color:#459CCB"/>
						<stop  offset="0.25" style="stop-color:#469DCB"/>
						<stop  offset="0.2656" style="stop-color:#489ECC"/>
						<stop  offset="0.2812" style="stop-color:#499ECD"/>
						<stop  offset="0.2969" style="stop-color:#4A9FCD"/>
						<stop  offset="0.3125" style="stop-color:#4BA0CE"/>
						<stop  offset="0.3281" style="stop-color:#4CA1CF"/>
						<stop  offset="0.3438" style="stop-color:#4DA2CF"/>
						<stop  offset="0.3594" style="stop-color:#4EA2D0"/>
						<stop  offset="0.375" style="stop-color:#4FA3D1"/>
						<stop  offset="0.3906" style="stop-color:#50A4D1"/>
						<stop  offset="0.4062" style="stop-color:#51A5D2"/>
						<stop  offset="0.4141" style="stop-color:#52A5D3"/>
						<stop  offset="0.4219" style="stop-color:#53A6D3"/>
						<stop  offset="0.4375" style="stop-color:#54A6D4"/>
						<stop  offset="0.4453" style="stop-color:#54A7D4"/>
						<stop  offset="0.4531" style="stop-color:#55A7D4"/>
						<stop  offset="0.4609" style="stop-color:#56A7D5"/>
						<stop  offset="0.4688" style="stop-color:#56A8D5"/>
						<stop  offset="0.4766" style="stop-color:#57A8D5"/>
						<stop  offset="0.4844" style="stop-color:#57A9D6"/>
						<stop  offset="0.4922" style="stop-color:#58A9D6"/>
						<stop  offset="0.5" style="stop-color:#58A9D6"/>
						<stop  offset="0.5078" style="stop-color:#59AAD7"/>
						<stop  offset="0.5156" style="stop-color:#5AAAD7"/>
						<stop  offset="0.5234" style="stop-color:#5AABD7"/>
						<stop  offset="0.5312" style="stop-color:#5BABD8"/>
						<stop  offset="0.5391" style="stop-color:#5BABD8"/>
						<stop  offset="0.5469" style="stop-color:#5CACD9"/>
						<stop  offset="0.5547" style="stop-color:#5DACD9"/>
						<stop  offset="0.5625" style="stop-color:#5DADD9"/>
						<stop  offset="0.5703" style="stop-color:#5EADDA"/>
						<stop  offset="0.5781" style="stop-color:#5EADDA"/>
						<stop  offset="0.5859" style="stop-color:#5FAEDA"/>
						<stop  offset="0.5938" style="stop-color:#60AEDB"/>
						<stop  offset="0.6016" style="stop-color:#60AEDB"/>
						<stop  offset="0.6094" style="stop-color:#61AFDB"/>
						<stop  offset="0.6172" style="stop-color:#61AFDC"/>
						<stop  offset="0.625" style="stop-color:#62B0DC"/>
						<stop  offset="0.6328" style="stop-color:#63B0DC"/>
						<stop  offset="0.6406" style="stop-color:#63B0DD"/>
						<stop  offset="0.6484" style="stop-color:#64B1DD"/>
						<stop  offset="0.6562" style="stop-color:#64B1DD"/>
						<stop  offset="0.6641" style="stop-color:#65B2DE"/>
						<stop  offset="0.6719" style="stop-color:#66B2DE"/>
						<stop  offset="0.6797" style="stop-color:#66B2DE"/>
						<stop  offset="0.6875" style="stop-color:#67B3DF"/>
						<stop  offset="0.6953" style="stop-color:#67B3DF"/>
						<stop  offset="0.7031" style="stop-color:#68B4DF"/>
						<stop  offset="0.7109" style="stop-color:#69B4E0"/>
						<stop  offset="0.7188" style="stop-color:#69B4E0"/>
						<stop  offset="0.7266" style="stop-color:#6AB5E1"/>
						<stop  offset="0.7344" style="stop-color:#6BB5E1"/>
						<stop  offset="0.7422" style="stop-color:#6BB6E1"/>
						<stop  offset="0.75" style="stop-color:#6CB6E2"/>
						<stop  offset="0.7578" style="stop-color:#6CB6E2"/>
						<stop  offset="0.7656" style="stop-color:#6DB7E2"/>
						<stop  offset="0.7734" style="stop-color:#6EB7E3"/>
						<stop  offset="0.7812" style="stop-color:#6EB8E3"/>
						<stop  offset="0.7891" style="stop-color:#6FB8E3"/>
						<stop  offset="0.7969" style="stop-color:#70B8E4"/>
						<stop  offset="0.8047" style="stop-color:#70B9E4"/>
						<stop  offset="0.8125" style="stop-color:#71B9E4"/>
						<stop  offset="0.8203" style="stop-color:#71BAE5"/>
						<stop  offset="0.8281" style="stop-color:#72BAE5"/>
						<stop  offset="0.8359" style="stop-color:#73BAE5"/>
						<stop  offset="0.8438" style="stop-color:#73BBE6"/>
						<stop  offset="0.8516" style="stop-color:#74BBE6"/>
						<stop  offset="0.8594" style="stop-color:#75BCE6"/>
						<stop  offset="0.8672" style="stop-color:#75BCE7"/>
						<stop  offset="0.875" style="stop-color:#76BDE7"/>
						<stop  offset="0.8828" style="stop-color:#77BDE8"/>
						<stop  offset="0.8906" style="stop-color:#77BDE8"/>
						<stop  offset="0.8984" style="stop-color:#78BEE8"/>
						<stop  offset="0.9062" style="stop-color:#79BEE9"/>
						<stop  offset="0.9141" style="stop-color:#79BFE9"/>
						<stop  offset="0.9219" style="stop-color:#7ABFE9"/>
						<stop  offset="0.9297" style="stop-color:#7BBFEA"/>
						<stop  offset="0.9375" style="stop-color:#7BC0EA"/>
						<stop  offset="0.9453" style="stop-color:#7CC0EA"/>
						<stop  offset="0.9531" style="stop-color:#7DC1EB"/>
						<stop  offset="0.9609" style="stop-color:#7DC1EB"/>
						<stop  offset="0.9688" style="stop-color:#7EC1EB"/>
						<stop  offset="0.9766" style="stop-color:#7FC2EC"/>
						<stop  offset="0.9844" style="stop-color:#7FC2EC"/>
						<stop  offset="0.9922" style="stop-color:#80C3ED"/>
						<stop  offset="1" style="stop-color:#81C3ED"/>
					</linearGradient>
					<path id="path7016" fill="url(#path7016_1_)" d="M37.252,810.189h41.746v-41.742H37.252V810.189z"/>
				</g>
			</g>
			<path id="path7018" fill="#FFFFFF" d="M70.92,789.322c0,7.066-5.723,12.793-12.793,12.793c-7.066,0-12.797-5.727-12.797-12.793
				c0-7.07,5.73-12.801,12.797-12.801C65.198,776.521,70.92,782.251,70.92,789.322"/>
			<g>
				<defs>
					<path id="SVGID_3_" d="M46.608,789.322c0,6.359,5.156,11.516,11.523,11.516c6.359,0,11.512-5.156,11.512-11.516
						c0-6.367-5.152-11.52-11.512-11.52C51.764,777.802,46.608,782.955,46.608,789.322"/>
				</defs>
				<clipPath id="SVGID_4_">
					<use xlink:href="#SVGID_3_"  overflow="visible"/>
				</clipPath>
				<g id="g7020" clip-path="url(#SVGID_4_)">
					
						<linearGradient id="path7022_1_" gradientUnits="userSpaceOnUse" x1="21.1142" y1="811.3154" x2="22.1309" y2="811.3154" gradientTransform="matrix(0 162.8146 162.8146 0 -132035.9062 -2659.8989)">
						<stop  offset="0.0166" style="stop-color:#3792C1"/>
						<stop  offset="0.0312" style="stop-color:#3792C1"/>
						<stop  offset="0.0391" style="stop-color:#3792C1"/>
						<stop  offset="0.043" style="stop-color:#3893C2"/>
						<stop  offset="0.0469" style="stop-color:#3993C2"/>
						<stop  offset="0.0547" style="stop-color:#3993C3"/>
						<stop  offset="0.0625" style="stop-color:#3A94C3"/>
						<stop  offset="0.0703" style="stop-color:#3B95C4"/>
						<stop  offset="0.0781" style="stop-color:#3C96C5"/>
						<stop  offset="0.0859" style="stop-color:#3D96C5"/>
						<stop  offset="0.0938" style="stop-color:#3E97C6"/>
						<stop  offset="0.1016" style="stop-color:#3F98C7"/>
						<stop  offset="0.1094" style="stop-color:#4098C7"/>
						<stop  offset="0.1172" style="stop-color:#4199C8"/>
						<stop  offset="0.125" style="stop-color:#429AC8"/>
						<stop  offset="0.1328" style="stop-color:#439BC9"/>
						<stop  offset="0.1406" style="stop-color:#449BCA"/>
						<stop  offset="0.1484" style="stop-color:#459CCA"/>
						<stop  offset="0.1562" style="stop-color:#469DCB"/>
						<stop  offset="0.1641" style="stop-color:#479DCC"/>
						<stop  offset="0.1719" style="stop-color:#489ECC"/>
						<stop  offset="0.1797" style="stop-color:#499FCD"/>
						<stop  offset="0.1875" style="stop-color:#4A9FCD"/>
						<stop  offset="0.1953" style="stop-color:#4AA0CE"/>
						<stop  offset="0.2031" style="stop-color:#4BA0CE"/>
						<stop  offset="0.2109" style="stop-color:#4CA1CF"/>
						<stop  offset="0.2188" style="stop-color:#4DA2D0"/>
						<stop  offset="0.2266" style="stop-color:#4EA2D0"/>
						<stop  offset="0.2344" style="stop-color:#4FA3D1"/>
						<stop  offset="0.2422" style="stop-color:#50A4D1"/>
						<stop  offset="0.25" style="stop-color:#51A4D2"/>
						<stop  offset="0.2578" style="stop-color:#52A5D2"/>
						<stop  offset="0.2656" style="stop-color:#53A5D3"/>
						<stop  offset="0.2734" style="stop-color:#54A6D3"/>
						<stop  offset="0.2812" style="stop-color:#54A7D4"/>
						<stop  offset="0.2891" style="stop-color:#55A7D5"/>
						<stop  offset="0.2969" style="stop-color:#56A8D5"/>
						<stop  offset="0.3047" style="stop-color:#57A8D6"/>
						<stop  offset="0.3125" style="stop-color:#58A9D6"/>
						<stop  offset="0.3203" style="stop-color:#59A9D7"/>
						<stop  offset="0.3281" style="stop-color:#59AAD7"/>
						<stop  offset="0.3359" style="stop-color:#5AABD8"/>
						<stop  offset="0.3438" style="stop-color:#5BABD8"/>
						<stop  offset="0.3516" style="stop-color:#5CACD8"/>
						<stop  offset="0.3594" style="stop-color:#5DACD9"/>
						<stop  offset="0.3672" style="stop-color:#5EADD9"/>
						<stop  offset="0.375" style="stop-color:#5EADDA"/>
						<stop  offset="0.3828" style="stop-color:#5FAEDA"/>
						<stop  offset="0.3906" style="stop-color:#60AEDB"/>
						<stop  offset="0.3984" style="stop-color:#61AFDB"/>
						<stop  offset="0.4062" style="stop-color:#61AFDC"/>
						<stop  offset="0.4141" style="stop-color:#62B0DC"/>
						<stop  offset="0.4219" style="stop-color:#63B0DD"/>
						<stop  offset="0.4297" style="stop-color:#64B1DD"/>
						<stop  offset="0.4375" style="stop-color:#64B1DD"/>
						<stop  offset="0.4453" style="stop-color:#65B2DE"/>
						<stop  offset="0.4531" style="stop-color:#66B2DE"/>
						<stop  offset="0.4609" style="stop-color:#67B3DF"/>
						<stop  offset="0.4688" style="stop-color:#67B3DF"/>
						<stop  offset="0.4766" style="stop-color:#68B4DF"/>
						<stop  offset="0.4844" style="stop-color:#69B4E0"/>
						<stop  offset="0.4922" style="stop-color:#69B4E0"/>
						<stop  offset="0.5" style="stop-color:#6AB5E1"/>
						<stop  offset="0.5078" style="stop-color:#6BB5E1"/>
						<stop  offset="0.5156" style="stop-color:#6BB6E1"/>
						<stop  offset="0.5234" style="stop-color:#6CB6E2"/>
						<stop  offset="0.5312" style="stop-color:#6DB7E2"/>
						<stop  offset="0.5469" style="stop-color:#6EB7E3"/>
						<stop  offset="0.5625" style="stop-color:#6FB8E3"/>
						<stop  offset="0.5781" style="stop-color:#70B9E4"/>
						<stop  offset="0.5938" style="stop-color:#71B9E5"/>
						<stop  offset="0.6094" style="stop-color:#72BAE5"/>
						<stop  offset="0.625" style="stop-color:#73BBE6"/>
						<stop  offset="0.6406" style="stop-color:#74BCE6"/>
						<stop  offset="0.6562" style="stop-color:#75BCE7"/>
						<stop  offset="0.6719" style="stop-color:#76BDE7"/>
						<stop  offset="0.6875" style="stop-color:#77BDE8"/>
						<stop  offset="0.7031" style="stop-color:#78BEE8"/>
						<stop  offset="0.7188" style="stop-color:#79BEE9"/>
						<stop  offset="0.7344" style="stop-color:#7ABFE9"/>
						<stop  offset="0.75" style="stop-color:#7BBFEA"/>
						<stop  offset="0.7656" style="stop-color:#7BC0EA"/>
						<stop  offset="0.7812" style="stop-color:#7CC0EA"/>
						<stop  offset="0.8125" style="stop-color:#7DC1EB"/>
						<stop  offset="0.8438" style="stop-color:#7EC2EB"/>
						<stop  offset="0.875" style="stop-color:#7FC2EC"/>
						<stop  offset="0.9375" style="stop-color:#80C3ED"/>
						<stop  offset="1" style="stop-color:#81C3ED"/>
					</linearGradient>
					<path id="path7022" fill="url(#path7022_1_)" d="M69.643,777.802H46.608v23.035h23.035V777.802z"/>
				</g>
			</g>
			<path id="path7024" fill="#FFFFFF" d="M51.42,791.564c-0.117,0.094-0.223,0.18-0.32,0.262c-0.09,0.082-0.211,0.152-0.371,0.234
				c-0.156,0.082-0.301,0.141-0.453,0.172c-0.145,0.043-0.348,0.062-0.613,0.062c-0.488,0-0.895-0.172-1.215-0.496
				c-0.324-0.332-0.488-0.738-0.488-1.242c0-0.418,0.082-0.75,0.246-1c0.168-0.254,0.402-0.457,0.707-0.605
				c0.312-0.148,0.688-0.254,1.117-0.312c0.438-0.055,0.902-0.109,1.406-0.137v-0.035c0-0.301-0.117-0.516-0.34-0.629
				c-0.227-0.117-0.562-0.176-1.016-0.176c-0.207,0-0.441,0.039-0.715,0.117c-0.27,0.066-0.535,0.168-0.801,0.281h-0.141v-1.34
				c0.172-0.055,0.445-0.109,0.828-0.18s0.766-0.105,1.16-0.105c0.953,0,1.645,0.164,2.082,0.477c0.441,0.32,0.66,0.809,0.66,1.457
				v3.777l-1.734,0V791.564z M51.42,790.697v-1.152c-0.293,0.031-0.527,0.059-0.703,0.082c-0.176,0.019-0.355,0.055-0.527,0.121
				c-0.152,0.051-0.27,0.129-0.348,0.238c-0.086,0.109-0.133,0.25-0.133,0.422c0,0.258,0.074,0.438,0.211,0.535
				c0.137,0.098,0.344,0.141,0.621,0.141c0.141,0,0.297-0.023,0.449-0.102C51.155,790.919,51.295,790.818,51.42,790.697"/>
			<path id="path7026" fill="#FFFFFF" d="M56.948,792.294c-0.457,0-0.883-0.062-1.262-0.176c-0.375-0.117-0.703-0.293-0.984-0.531
				c-0.281-0.246-0.496-0.547-0.652-0.906c-0.156-0.363-0.23-0.797-0.23-1.285c0-0.535,0.078-0.977,0.25-1.355
				c0.168-0.371,0.391-0.676,0.684-0.914c0.277-0.23,0.602-0.402,0.98-0.512c0.371-0.113,0.762-0.168,1.168-0.168
				c0.305,0,0.617,0.039,0.918,0.113c0.309,0.066,0.613,0.18,0.922,0.336v1.48h-0.223c-0.062-0.066-0.152-0.141-0.25-0.211
				c-0.105-0.086-0.207-0.156-0.328-0.219c-0.125-0.078-0.273-0.125-0.422-0.18c-0.164-0.047-0.34-0.074-0.535-0.074
				c-0.441,0-0.785,0.152-1.027,0.465c-0.238,0.305-0.367,0.719-0.367,1.238c0,0.551,0.133,0.969,0.391,1.242
				c0.258,0.27,0.598,0.406,1.031,0.406c0.219,0,0.414-0.027,0.582-0.07c0.16-0.051,0.301-0.113,0.414-0.18
				c0.121-0.07,0.223-0.137,0.305-0.215c0.082-0.07,0.156-0.137,0.207-0.195h0.223v1.477c-0.098,0.043-0.211,0.094-0.344,0.152
				c-0.129,0.051-0.254,0.098-0.395,0.133c-0.164,0.055-0.328,0.078-0.473,0.105C57.381,792.279,57.19,792.294,56.948,792.294"/>
			<path id="path7028" fill="#FFFFFF" d="M66.291,792.146v-2.773c0-0.27-0.004-0.496-0.016-0.688
				c-0.012-0.188-0.043-0.344-0.094-0.461c-0.047-0.121-0.129-0.203-0.23-0.258c-0.102-0.059-0.25-0.082-0.434-0.082
				c-0.133,0-0.262,0.023-0.395,0.082c-0.129,0.059-0.27,0.145-0.422,0.246v3.934h-1.73v-2.773c0-0.27-0.004-0.496-0.016-0.688
				c-0.016-0.188-0.039-0.344-0.09-0.461c-0.055-0.121-0.129-0.203-0.23-0.258c-0.109-0.059-0.254-0.082-0.438-0.082
				c-0.145,0-0.281,0.031-0.418,0.094c-0.137,0.07-0.27,0.148-0.395,0.234v3.934h-1.73v-5.543h1.73v0.613
				c0.281-0.238,0.551-0.43,0.801-0.566c0.246-0.133,0.527-0.203,0.844-0.203c0.336,0,0.637,0.082,0.887,0.242
				c0.266,0.16,0.457,0.398,0.594,0.723c0.332-0.309,0.648-0.547,0.938-0.715c0.297-0.168,0.594-0.25,0.895-0.25
				c0.258,0,0.488,0.047,0.695,0.125c0.203,0.086,0.379,0.211,0.516,0.371c0.16,0.18,0.273,0.391,0.348,0.637
				c0.082,0.246,0.117,0.562,0.117,0.961l0,3.605H66.291z"/>
		</g>
	</g>
</g>
</svg>
