<svg xmlns="http://www.w3.org/2000/svg" width="700pt" height="238pt" viewBox="0 0 700 238" version="1.1"><style>.style0{opacity:	1;fill:	#000000;}.style1{opacity:	1;fill:	#ffffff;}.style2{opacity:	1;fill:	#ed1c24;}</style><g><path d=" M 1.7 1.6 C 40.6 1.4 79.6 1.5 118.5 1.5 C 118.5 8.9 118.5 16.4 118.5 23.8 C 114 26.2 109.5 28.6 105 30.9 C 105 60.9 105 90.9 105 121 C 105.3 128.6 105.1 136.3 106.7 143.8 C 108 150.5 111.3 157 117.1 160.8 C 123.1 164.9 131.4 165.4 137.7 161.8 C 144.9 157.8 148.8 149.8 150.1 142 C 151.3 134.1 151.3 126 151.2 118 C 151.2 89 151.2 59.9 151.2 30.9 C 147.3 28.6 143.4 26.5 139.5 24.3 C 139.5 16.7 139.5 9.1 139.5 1.5 C 207.4 1.5 275.4 1.4 343.3 1.6 C 343.2 8.8 343.2 16 343.3 23.2 C 338.8 25.8 334.2 28.3 329.8 30.8 C 329.8 44.5 329.7 58.3 329.8 72 C 345.5 72 361.2 72 377 72 C 377 58.3 377 44.5 377 30.8 C 372.7 28.4 368.5 26 364.1 23.7 C 363.9 16.3 364 8.9 364 1.5 C 428.7 1.5 493.3 1.5 558 1.5 C 558 8.9 558 16.3 558 23.7 C 554 25.9 550 28.1 546 30.2 C 553.1 47.2 560.2 64.3 567.5 81.3 C 574.6 64.2 582 47.3 589 30.2 C 585.6 28.3 582.2 26.5 578.8 24.7 C 578.7 17 578.8 9.3 578.7 1.6 C 618.6 1.5 658.4 1.4 698.3 1.6 C 698.2 9.6 698.3 17.6 698.2 25.7 C 694.1 27.7 689.8 29.4 685.8 31.9 C 683.4 35.3 681.9 39.2 680 43 C 660.8 84.4 641.6 125.9 622.4 167.4 C 616.8 179.6 611 191.7 605.6 204.1 C 608.5 205.8 611.5 207.4 614.5 209.1 C 614.5 216.9 614.5 224.7 614.5 232.5 C 581.5 232.5 548.5 232.5 515.5 232.5 C 515.5 225.2 515.5 217.9 515.5 210.7 C 519.2 208.4 522.9 206.2 526.7 204.1 C 509 165.3 490.9 126.7 473.1 87.9 C 472.2 86.1 471.3 84.2 470.3 82.5 C 470.1 122.6 470.3 162.8 470.2 202.9 C 474.4 205.4 478.6 207.6 482.8 210.1 C 482.7 217.6 482.8 225 482.8 232.5 C 443.7 232.5 404.7 232.6 365.7 232.4 C 365.8 224.7 365.6 217 365.8 209.2 C 369.6 207.2 373.3 205.1 377 203 C 377 182.8 377 162.7 377 142.5 C 361.2 142.5 345.5 142.5 329.8 142.5 C 329.7 162.7 329.8 182.9 329.8 203 C 333.4 205.1 337.1 207.2 340.7 209.3 C 340.8 217 340.7 224.7 340.8 232.4 C 302.4 232.6 263.9 232.5 225.5 232.5 C 225.5 224.7 225.4 216.9 225.6 209.1 C 229.3 207.1 232.9 205.1 236.5 202.9 C 236.4 195.7 236.5 188.5 236.5 181.3 C 233.8 189.1 230.5 196.8 225.3 203.2 C 214.1 217.4 197.2 225.7 180.1 230.1 C 160.8 235.1 140.8 236.2 121.1 236 C 100.7 235.5 80 233.3 60.8 226.1 C 47.8 221.1 35.2 213.7 26.8 202.4 C 15.9 188 12.9 169.5 12 151.9 C 12 111.6 12 71.3 12 30.9 C 8.6 29 5.2 27.1 1.7 25.2 C 1.8 17.3 1.8 9.4 1.7 1.6 M 7 6.8 C 7 11.9 7 17 7 22.1 C 10.2 23.9 13.5 25.6 16.6 27.6 C 17.5 28.8 17.1 30.6 17.3 32 C 17.2 71.7 17.2 111.3 17.3 151 C 17.8 164.2 19.7 177.6 25.2 189.7 C 31 202.2 42 211.8 54.4 217.6 C 71.3 225.8 90.3 228.9 109 230.2 C 128.6 231.4 148.5 230.8 167.9 227.4 C 186.6 224 205.7 217.2 218.8 202.8 C 230.9 189.5 234.6 170.9 235.4 153.5 C 236.3 117.3 235.2 81 236 44.8 C 237.8 44.7 239.5 44.7 241.3 44.7 C 241.6 46.1 241.8 47.5 241.8 48.9 C 241.7 101.3 241.8 153.7 241.7 206.1 C 238.1 208.2 234.4 210.2 230.8 212.3 C 230.8 217.3 230.8 222.3 230.8 227.2 C 265.7 227.2 300.6 227.2 335.5 227.2 C 335.5 222.2 335.6 217.2 335.4 212.2 C 331.8 210.3 328.2 208.2 324.6 206.2 C 324.4 183.2 324.6 160.2 324.5 137.3 C 343.7 137.2 363 137.3 382.2 137.2 C 382.3 159.2 382.2 181.1 382.3 203 C 382.1 204.3 382.5 206.2 380.9 206.8 C 377.6 208.8 374.3 210.6 371 212.4 C 371 217.4 371 222.3 371 227.2 C 406.5 227.2 442 227.2 477.5 227.2 C 477.5 222.6 477.5 217.8 477.5 213.1 C 473.4 210.8 469.1 208.5 465 206 C 465.1 156.7 464.7 107.3 465.2 57.9 C 466.8 62.4 469.1 66.6 471 71 C 489.9 111.7 508.7 152.4 527.6 193.2 C 529.6 197.5 531.8 201.9 533 206.6 C 528.9 208.9 524.8 211.3 520.7 213.6 C 520.8 218.2 520.7 222.7 520.8 227.2 C 550.2 227.2 579.8 227.2 609.2 227.2 C 609.2 222.2 609.3 217.2 609.2 212.1 C 605.8 210.3 602.5 208.4 599.2 206.4 C 601.3 199.6 604.7 193.3 607.6 186.9 C 630.1 138.3 652.6 89.7 675.1 41.1 C 677.4 36.5 679.2 31.6 682.4 27.5 C 685.8 25.6 689.5 24.1 693 22.2 C 693 17.1 693 11.9 693 6.8 C 656.7 6.8 620.3 6.8 584 6.8 C 584 11.7 583.9 16.7 584.1 21.6 C 587.8 23.5 591.4 25.6 595.1 27.4 C 594 32.8 591.5 37.6 589.5 42.6 C 582.1 60 575 77.4 567.4 94.8 C 559 74.8 550.6 54.8 542.2 34.9 C 541.2 32.5 540.4 30 539.8 27.4 C 544.2 25.3 548.4 22.8 552.7 20.6 C 552.8 16 552.7 11.4 552.8 6.8 C 491.6 6.7 430.4 6.8 369.3 6.7 C 369.2 11.3 369.3 15.9 369.2 20.4 C 373.5 23 378.1 25 382 27.9 C 382.5 44.3 382.1 60.8 382.2 77.2 C 363 77.2 343.8 77.2 324.5 77.2 C 324.6 60.8 324.3 44.3 324.6 27.9 C 328.9 24.9 333.6 22.8 338 20.2 C 338 15.7 338 11.2 338 6.8 C 273.6 6.8 209.2 6.8 144.8 6.8 C 144.8 11.6 144.8 16.4 144.8 21.2 C 148.7 23.4 152.6 25.5 156.4 27.8 C 156.6 60.8 156.5 93.9 156.5 127 C 156.2 138.3 155.6 150.8 148 160 C 142.5 166.6 133.7 170.5 125.1 169.3 C 115.7 168.3 107.7 161.4 104 152.8 C 99.8 143.5 100.2 133 99.8 122.9 C 99.7 92.6 99.8 62.3 99.7 32 C 99.8 30.5 99.6 28.9 100.3 27.5 C 104.5 25 109 23 113.2 20.6 C 113.2 16 113.2 11.4 113.2 6.8 C 77.8 6.8 42.4 6.8 7 6.8 Z" class="style0"/></g><g><path d=" M 7 6.8 C 42.4 6.8 77.8 6.8 113.2 6.8 C 113.2 11.4 113.2 16 113.2 20.6 C 109 23 104.5 25 100.3 27.5 C 99.6 28.9 99.8 30.5 99.7 32 C 99.8 62.3 99.7 92.6 99.8 122.9 C 100.2 133 99.8 143.5 104 152.8 C 107.7 161.4 115.7 168.3 125.1 169.3 C 133.7 170.5 142.5 166.6 148 160 C 155.6 150.8 156.2 138.3 156.5 127 C 156.5 93.9 156.6 60.8 156.4 27.8 C 152.6 25.5 148.7 23.4 144.8 21.2 C 144.8 16.4 144.8 11.6 144.8 6.8 C 209.2 6.8 273.6 6.8 338 6.8 C 338 11.2 338 15.7 338 20.2 C 333.6 22.8 328.9 24.9 324.6 27.9 C 324.3 44.3 324.6 60.8 324.5 77.2 C 343.8 77.2 363 77.2 382.2 77.2 C 382.1 60.8 382.5 44.3 382 27.9 C 378.1 25 373.5 23 369.2 20.4 C 369.3 15.9 369.2 11.3 369.3 6.7 C 430.4 6.8 491.6 6.7 552.8 6.8 C 552.7 11.4 552.8 16 552.7 20.6 C 548.4 22.8 544.2 25.3 539.8 27.4 C 540.4 30 541.2 32.5 542.2 34.9 C 550.6 54.8 559 74.8 567.4 94.8 C 575 77.4 582.1 60 589.5 42.6 C 591.5 37.6 594 32.8 595.1 27.4 C 591.4 25.6 587.8 23.5 584.1 21.6 C 583.9 16.7 584 11.7 584 6.8 C 620.3 6.8 656.7 6.8 693 6.8 C 693 11.9 693 17.1 693 22.2 C 689.5 24.1 685.8 25.6 682.4 27.5 C 679.2 31.6 677.4 36.5 675.1 41.1 C 652.6 89.7 630.1 138.3 607.6 186.9 C 604.7 193.3 601.3 199.6 599.2 206.4 C 602.5 208.4 605.8 210.3 609.2 212.1 C 609.3 217.2 609.2 222.2 609.2 227.2 C 579.8 227.2 550.2 227.2 520.8 227.2 C 520.7 222.7 520.8 218.2 520.7 213.6 C 524.8 211.3 528.9 208.9 533 206.6 C 531.8 201.9 529.6 197.5 527.6 193.2 C 508.7 152.4 489.9 111.7 471 71 C 469.1 66.6 466.8 62.4 465.2 57.9 C 464.7 107.3 465.1 156.7 465 206 C 469.1 208.5 473.4 210.8 477.5 213.1 C 477.5 217.8 477.5 222.6 477.5 227.2 C 442 227.2 406.5 227.2 371 227.2 C 371 222.3 371 217.4 371 212.4 C 374.3 210.6 377.6 208.8 380.9 206.8 C 382.5 206.2 382.1 204.3 382.3 203 C 382.2 181.1 382.3 159.2 382.2 137.2 C 363 137.3 343.7 137.2 324.5 137.3 C 324.6 160.2 324.4 183.2 324.6 206.2 C 328.2 208.2 331.8 210.3 335.4 212.2 C 335.6 217.2 335.5 222.2 335.5 227.2 C 300.6 227.2 265.7 227.2 230.8 227.2 C 230.8 222.3 230.8 217.3 230.8 212.3 C 234.4 210.2 238.1 208.2 241.7 206.1 C 241.8 153.7 241.7 101.3 241.8 48.9 C 241.8 47.5 241.6 46.1 241.3 44.7 C 239.5 44.7 237.8 44.7 236 44.8 C 235.2 81 236.3 117.3 235.4 153.5 C 234.6 170.9 230.9 189.5 218.8 202.8 C 205.7 217.2 186.6 224 167.9 227.4 C 148.5 230.8 128.6 231.4 109 230.2 C 90.3 228.9 71.3 225.8 54.4 217.6 C 42 211.8 31 202.2 25.2 189.7 C 19.7 177.6 17.8 164.2 17.3 151 C 17.2 111.3 17.2 71.7 17.3 32 C 17.1 30.6 17.5 28.8 16.6 27.6 C 13.5 25.6 10.2 23.9 7 22.1 C 7 17 7 11.9 7 6.8 M 20.8 17.4 C 25.1 19.6 27.9 24.1 27.8 28.9 C 27.8 65.3 27.8 101.7 27.7 138 C 27.7 151.2 28.1 164.5 31.9 177.2 C 33.7 183.1 36.3 188.9 40.2 193.7 C 45.3 200.2 52.3 204.8 59.7 208.3 C 71.1 213.7 83.7 216.6 96.2 218.2 C 113.5 220.4 131 220.5 148.4 219.2 C 164.3 217.8 180.5 214.9 194.9 207.6 C 205.5 202.2 214.8 193.5 219.1 182.3 C 223.9 170.2 224.8 156.9 225 144 C 225 112.4 225 80.7 225 49 C 224.8 45.4 225.3 41.6 227.6 38.6 C 231.4 33.5 238.8 33 244.5 34.7 C 249.7 36.4 252.6 41.9 252.5 47.1 C 252.5 97.7 252.5 148.4 252.5 199 C 252.5 203 252.9 207.2 251.1 210.9 C 250 213.4 247.7 214.9 245.6 216.5 C 270.7 216.5 295.7 216.5 320.8 216.5 C 316.7 214.1 313.6 209.9 313.8 205 C 313.7 178.8 313.8 152.7 313.7 126.5 C 340.1 126.4 366.6 126.5 393 126.5 C 393 152.3 393 178.2 393 204 C 393.2 209.2 390.3 214.1 385.8 216.6 C 411 216.5 436.1 216.4 461.2 216.6 C 457.1 214.2 454 209.9 454.3 205 C 454.2 154 454.3 103 454.2 52 C 454.3 47.9 454.5 43.7 455.8 39.7 C 456.7 37.2 459 34.5 462 35.1 C 466.7 36.3 468.7 41.2 470.8 45.1 C 493.8 94.8 516.8 144.4 539.8 194.1 C 541.8 199 544.8 204.4 543 209.8 C 542.1 212.7 539.9 214.7 537.7 216.6 C 556.7 216.5 575.7 216.4 594.8 216.6 C 592.4 214.8 590.1 212.8 589.3 209.9 C 587.5 204.4 590.4 199.1 592.5 194.1 C 610.8 154.5 629.1 115 647.4 75.4 C 654.3 60.6 661 45.7 668.1 31.1 C 670.7 26.1 672.9 20.3 678.1 17.4 C 651.9 17.6 625.8 17.5 599.6 17.4 C 601.9 19.4 604.6 21.3 605.4 24.4 C 606.6 29.3 604.5 34.2 602.8 38.7 C 591.1 66.6 579.3 94.5 567.6 122.4 C 555.8 95.1 544.5 67.6 532.8 40.2 C 530.9 35.3 528.3 29.9 529.6 24.4 C 530.3 21.3 533 19.4 535.4 17.4 C 485.6 17.5 435.8 17.6 386.1 17.4 C 387.9 18.7 389.9 20 391 22 C 393.2 25.6 393 30 393 34 C 393 52 393 70 393 88 C 366.6 88 340.2 88 313.8 88 C 313.8 68.3 313.7 48.7 313.8 29 C 313.6 24.2 316.5 20 320.4 17.5 C 267.1 17.6 213.8 17.5 160.6 17.5 C 162.6 19.1 164.9 20.7 165.9 23.1 C 167.7 26.8 167.2 31 167.3 35 C 167.2 65.3 167.3 95.7 167.2 126 C 166.9 135.7 166.7 145.8 163 155 C 159.3 165 151.5 173.7 141.5 177.7 C 131.3 181.9 119.3 180.9 109.9 175.2 C 101 170 94.8 160.8 92 151 C 89 140.6 89.4 129.7 89 119 C 89 90.3 89 61.7 89 33.1 C 89.1 29.3 89 25.3 91 22 C 92.2 20 94.2 18.7 96.1 17.4 C 71 17.6 45.9 17.6 20.8 17.4 Z" class="style1"/></g><g><path d=" M 20.8 17.4 C 45.9 17.6 71 17.6 96.1 17.4 C 94.2 18.7 92.2 20 91 22 C 89 25.3 89.1 29.3 89 33.1 C 89 61.7 89 90.3 89 119 C 89.4 129.7 89 140.6 92 151 C 94.8 160.8 101 170 109.9 175.2 C 119.3 180.9 131.3 181.9 141.5 177.7 C 151.5 173.7 159.3 165 163 155 C 166.7 145.8 166.9 135.7 167.2 126 C 167.3 95.7 167.2 65.3 167.3 35 C 167.2 31 167.7 26.8 165.9 23.1 C 164.9 20.7 162.6 19.1 160.6 17.5 C 213.8 17.5 267.1 17.6 320.4 17.5 C 316.5 20 313.6 24.2 313.8 29 C 313.7 48.7 313.8 68.3 313.8 88 C 340.2 88 366.6 88 393 88 C 393 70 393 52 393 34 C 393 30 393.2 25.6 391 22 C 389.9 20 387.9 18.7 386.1 17.4 C 435.8 17.6 485.6 17.5 535.4 17.4 C 533 19.4 530.3 21.3 529.6 24.4 C 528.3 29.9 530.9 35.3 532.8 40.2 C 544.5 67.6 555.8 95.1 567.6 122.4 C 579.3 94.5 591.1 66.6 602.8 38.7 C 604.5 34.2 606.6 29.3 605.4 24.4 C 604.6 21.3 601.9 19.4 599.6 17.4 C 625.8 17.5 651.9 17.6 678.1 17.4 C 672.9 20.3 670.7 26.1 668.1 31.1 C 661 45.7 654.3 60.6 647.4 75.4 C 629.1 115 610.8 154.5 592.5 194.1 C 590.4 199.1 587.5 204.4 589.3 209.9 C 590.1 212.8 592.4 214.8 594.8 216.6 C 575.7 216.4 556.7 216.5 537.7 216.6 C 539.9 214.7 542.1 212.7 543 209.8 C 544.8 204.4 541.8 199 539.8 194.1 C 516.8 144.4 493.8 94.8 470.8 45.1 C 468.7 41.2 466.7 36.3 462 35.1 C 459 34.5 456.7 37.2 455.8 39.7 C 454.5 43.7 454.3 47.9 454.2 52 C 454.3 103 454.2 154 454.3 205 C 454 209.9 457.1 214.2 461.2 216.6 C 436.1 216.4 411 216.5 385.8 216.6 C 390.3 214.1 393.2 209.2 393 204 C 393 178.2 393 152.3 393 126.5 C 366.6 126.5 340.1 126.4 313.7 126.5 C 313.8 152.7 313.7 178.8 313.8 205 C 313.6 209.9 316.7 214.1 320.8 216.5 C 295.7 216.5 270.7 216.5 245.6 216.5 C 247.7 214.9 250 213.4 251.1 210.9 C 252.9 207.2 252.5 203 252.5 199 C 252.5 148.4 252.5 97.7 252.5 47.1 C 252.6 41.9 249.7 36.4 244.5 34.7 C 238.8 33 231.4 33.5 227.6 38.6 C 225.3 41.6 224.8 45.4 225 49 C 225 80.7 225 112.4 225 144 C 224.8 156.9 223.9 170.2 219.1 182.3 C 214.8 193.5 205.5 202.2 194.9 207.6 C 180.5 214.9 164.3 217.8 148.4 219.2 C 131 220.5 113.5 220.4 96.2 218.2 C 83.7 216.6 71.1 213.7 59.7 208.3 C 52.3 204.8 45.3 200.2 40.2 193.7 C 36.3 188.9 33.7 183.1 31.9 177.2 C 28.1 164.5 27.7 151.2 27.7 138 C 27.8 101.7 27.8 65.3 27.8 28.9 C 27.9 24.1 25.1 19.6 20.8 17.4 Z" class="style2"/></g></svg>