<?xml version="1.0" encoding="UTF-8" ?>
<!DOCTYPE svg PUBLIC "-//W3C//DTD SVG 1.1//EN" "http://www.w3.org/Graphics/SVG/1.1/DTD/svg11.dtd">
<svg width="700pt" height="238pt" viewBox="0 0 700 238" version="1.1" xmlns="http://www.w3.org/2000/svg">
<g id="#000000ff">
<path fill="#000000" opacity="1.00" d=" M 1.73 1.55 C 40.65 1.43 79.57 1.53 118.50 1.50 C 118.52 8.93 118.47 16.37 118.53 23.80 C 114.03 26.18 109.54 28.57 105.00 30.89 C 105.00 60.91 105.00 90.93 105.00 120.96 C 105.30 128.59 105.13 136.31 106.66 143.83 C 107.99 150.46 111.35 156.99 117.10 160.82 C 123.09 164.95 131.41 165.45 137.74 161.77 C 144.95 157.85 148.83 149.84 150.07 142.01 C 151.28 134.08 151.30 126.02 151.25 118.01 C 151.25 88.96 151.25 59.92 151.25 30.87 C 147.35 28.65 143.42 26.48 139.51 24.27 C 139.48 16.68 139.50 9.09 139.50 1.50 C 207.43 1.54 275.35 1.42 343.28 1.56 C 343.24 8.78 343.22 16.00 343.29 23.21 C 338.82 25.82 334.25 28.26 329.75 30.81 C 329.75 44.54 329.74 58.27 329.75 72.00 C 345.50 72.01 361.25 72.00 377.00 72.00 C 377.01 58.27 376.99 44.53 377.01 30.80 C 372.71 28.42 368.46 25.98 364.11 23.71 C 363.89 16.30 364.01 8.89 364.04 1.48 C 428.68 1.52 493.32 1.51 557.97 1.48 C 558.02 8.90 558.01 16.32 557.98 23.74 C 553.96 25.86 549.98 28.05 545.98 30.19 C 553.11 47.24 560.25 64.29 567.54 81.28 C 574.65 64.23 581.95 47.26 588.98 30.17 C 585.58 28.34 582.19 26.50 578.77 24.71 C 578.71 16.99 578.79 9.27 578.72 1.56 C 618.57 1.46 658.43 1.45 698.28 1.56 C 698.21 9.60 698.28 17.64 698.24 25.68 C 694.08 27.69 689.78 29.45 685.84 31.85 C 683.43 35.28 681.91 39.23 680.05 42.97 C 660.81 84.43 641.63 125.91 622.42 167.39 C 616.83 179.63 610.96 191.74 605.59 204.08 C 608.55 205.76 611.51 207.45 614.49 209.11 C 614.51 216.91 614.50 224.70 614.50 232.50 C 581.50 232.50 548.50 232.50 515.50 232.50 C 515.47 225.22 515.55 217.94 515.45 210.66 C 519.17 208.43 522.94 206.25 526.73 204.13 C 509.03 165.31 490.87 126.70 473.06 87.93 C 472.21 86.07 471.29 84.25 470.31 82.45 C 470.15 122.61 470.33 162.77 470.22 202.93 C 474.35 205.41 478.63 207.61 482.77 210.07 C 482.73 217.55 482.76 225.02 482.75 232.50 C 443.74 232.47 404.73 232.57 365.73 232.45 C 365.81 224.71 365.64 216.97 365.83 209.23 C 369.60 207.23 373.29 205.08 377.00 202.97 C 376.99 182.81 377.01 162.66 376.99 142.50 C 361.24 142.51 345.50 142.50 329.75 142.51 C 329.74 162.68 329.75 182.86 329.75 203.04 C 333.42 205.11 337.08 207.19 340.74 209.27 C 340.78 216.99 340.68 224.71 340.80 232.43 C 302.37 232.60 263.94 232.46 225.50 232.50 C 225.52 224.69 225.44 216.89 225.55 209.08 C 229.26 207.10 232.94 205.06 236.54 202.88 C 236.44 195.70 236.54 188.51 236.49 181.32 C 233.79 189.09 230.54 196.81 225.26 203.22 C 214.14 217.40 197.17 225.66 180.05 230.11 C 160.83 235.13 140.84 236.21 121.06 235.99 C 100.68 235.53 80.02 233.29 60.82 226.12 C 47.79 221.14 35.17 213.74 26.76 202.36 C 15.95 187.99 12.87 169.49 12.02 151.95 C 11.97 111.61 12.01 71.27 12.01 30.93 C 8.58 29.01 5.16 27.09 1.74 25.16 C 1.75 17.29 1.77 9.42 1.73 1.55 M 7.00 6.75 C 7.00 11.86 7.00 16.98 7.00 22.09 C 10.18 23.94 13.48 25.59 16.59 27.55 C 17.52 28.75 17.08 30.56 17.27 32.00 C 17.24 71.67 17.25 111.35 17.26 151.03 C 17.77 164.21 19.70 177.62 25.21 189.71 C 31.03 202.25 41.96 211.83 54.38 217.58 C 71.34 225.84 90.29 228.94 108.96 230.21 C 128.63 231.37 148.49 230.85 167.93 227.42 C 186.58 223.98 205.70 217.15 218.76 202.78 C 230.88 189.51 234.55 170.94 235.44 153.54 C 236.28 117.31 235.25 81.03 236.00 44.81 C 237.76 44.73 239.52 44.70 241.30 44.69 C 241.56 46.09 241.78 47.51 241.77 48.94 C 241.70 101.31 241.81 153.69 241.71 206.06 C 238.10 208.21 234.38 210.18 230.75 212.30 C 230.75 217.28 230.75 222.27 230.75 227.25 C 265.67 227.25 300.58 227.25 335.50 227.25 C 335.48 222.25 335.57 217.24 335.43 212.24 C 331.79 210.28 328.21 208.20 324.61 206.17 C 324.35 183.21 324.59 160.24 324.49 137.27 C 343.74 137.22 362.99 137.27 382.25 137.25 C 382.26 159.16 382.24 181.08 382.26 202.99 C 382.14 204.35 382.51 206.25 380.86 206.83 C 377.61 208.76 374.30 210.57 371.00 212.41 C 371.00 217.36 371.00 222.30 371.00 227.25 C 406.50 227.25 442.00 227.25 477.50 227.25 C 477.51 222.55 477.48 217.84 477.53 213.14 C 473.35 210.76 469.11 208.48 464.99 206.03 C 465.14 156.65 464.74 107.27 465.19 57.90 C 466.80 62.40 469.06 66.62 470.99 70.98 C 489.85 111.71 508.70 152.43 527.56 193.15 C 529.57 197.52 531.77 201.86 532.97 206.55 C 528.90 208.92 524.83 211.29 520.74 213.62 C 520.75 218.16 520.74 222.70 520.75 227.25 C 550.25 227.25 579.75 227.25 609.25 227.25 C 609.23 222.21 609.29 217.17 609.20 212.13 C 605.84 210.30 602.49 208.44 599.23 206.44 C 601.31 199.64 604.68 193.35 607.59 186.89 C 630.09 138.28 652.60 89.66 675.12 41.06 C 677.40 36.50 679.24 31.60 682.38 27.54 C 685.82 25.60 689.52 24.13 693.00 22.25 C 693.00 17.08 693.00 11.92 693.00 6.75 C 656.67 6.75 620.33 6.75 584.00 6.75 C 584.03 11.72 583.89 16.69 584.11 21.65 C 587.82 23.51 591.43 25.55 595.12 27.45 C 594.05 32.75 591.53 37.59 589.55 42.58 C 582.15 59.96 575.00 77.44 567.44 94.75 C 559.03 74.78 550.59 54.83 542.18 34.86 C 541.18 32.46 540.43 29.98 539.84 27.45 C 544.18 25.26 548.39 22.83 552.72 20.61 C 552.77 15.99 552.74 11.37 552.75 6.75 C 491.60 6.73 430.45 6.79 369.30 6.72 C 369.21 11.30 369.26 15.88 369.25 20.45 C 373.47 22.99 378.05 24.98 382.04 27.88 C 382.53 44.31 382.11 60.79 382.25 77.25 C 363.00 77.25 343.75 77.25 324.50 77.25 C 324.59 60.79 324.32 44.31 324.63 27.85 C 328.86 24.95 333.55 22.77 338.00 20.22 C 338.00 15.73 338.00 11.24 338.00 6.75 C 273.58 6.75 209.17 6.75 144.75 6.75 C 144.75 11.57 144.75 16.38 144.75 21.20 C 148.67 23.36 152.59 25.52 156.45 27.79 C 156.57 60.84 156.46 93.90 156.50 126.95 C 156.24 138.35 155.55 150.81 147.96 160.01 C 142.52 166.63 133.68 170.52 125.10 169.33 C 115.71 168.28 107.66 161.38 104.05 152.82 C 99.80 143.47 100.23 132.96 99.76 122.94 C 99.71 92.61 99.79 62.29 99.73 31.96 C 99.81 30.49 99.59 28.87 100.35 27.54 C 104.54 25.04 108.97 22.97 113.25 20.62 C 113.25 16.00 113.25 11.37 113.25 6.75 C 77.83 6.75 42.42 6.75 7.00 6.75 Z" />
</g>
<g id="#ffffffff">
<path fill="#ffffff" opacity="1.00" d=" M 7.00 6.75 C 42.42 6.75 77.83 6.75 113.25 6.75 C 113.25 11.37 113.25 16.00 113.25 20.62 C 108.97 22.97 104.54 25.04 100.35 27.54 C 99.59 28.87 99.81 30.49 99.73 31.96 C 99.79 62.29 99.71 92.61 99.76 122.94 C 100.23 132.96 99.80 143.47 104.05 152.82 C 107.66 161.38 115.71 168.28 125.10 169.33 C 133.68 170.52 142.52 166.63 147.96 160.01 C 155.55 150.81 156.24 138.35 156.50 126.95 C 156.46 93.90 156.57 60.84 156.45 27.79 C 152.59 25.52 148.67 23.36 144.75 21.20 C 144.75 16.38 144.75 11.57 144.75 6.75 C 209.17 6.75 273.58 6.75 338.00 6.75 C 338.00 11.24 338.00 15.73 338.00 20.22 C 333.55 22.77 328.86 24.95 324.63 27.85 C 324.32 44.31 324.59 60.79 324.50 77.25 C 343.75 77.25 363.00 77.25 382.25 77.25 C 382.11 60.79 382.53 44.31 382.04 27.88 C 378.05 24.98 373.47 22.99 369.25 20.45 C 369.26 15.88 369.21 11.30 369.30 6.72 C 430.45 6.79 491.60 6.73 552.75 6.75 C 552.74 11.37 552.77 15.99 552.72 20.61 C 548.39 22.83 544.18 25.26 539.84 27.45 C 540.43 29.98 541.18 32.46 542.18 34.86 C 550.59 54.83 559.03 74.78 567.44 94.75 C 575.00 77.44 582.15 59.96 589.55 42.58 C 591.53 37.59 594.05 32.75 595.12 27.45 C 591.43 25.55 587.82 23.51 584.11 21.65 C 583.89 16.69 584.03 11.72 584.00 6.75 C 620.33 6.75 656.67 6.75 693.00 6.75 C 693.00 11.92 693.00 17.08 693.00 22.25 C 689.52 24.13 685.82 25.60 682.38 27.54 C 679.24 31.60 677.40 36.50 675.12 41.06 C 652.60 89.66 630.09 138.28 607.59 186.89 C 604.68 193.35 601.31 199.64 599.23 206.44 C 602.49 208.44 605.84 210.30 609.20 212.13 C 609.29 217.17 609.23 222.21 609.25 227.25 C 579.75 227.25 550.25 227.25 520.75 227.25 C 520.74 222.70 520.75 218.16 520.74 213.62 C 524.83 211.29 528.90 208.92 532.97 206.55 C 531.77 201.86 529.57 197.52 527.56 193.15 C 508.70 152.43 489.85 111.71 470.99 70.98 C 469.06 66.62 466.80 62.40 465.19 57.90 C 464.74 107.27 465.14 156.65 464.99 206.03 C 469.11 208.48 473.35 210.76 477.53 213.14 C 477.48 217.84 477.51 222.55 477.50 227.25 C 442.00 227.25 406.50 227.25 371.00 227.25 C 371.00 222.30 371.00 217.36 371.00 212.41 C 374.30 210.57 377.61 208.76 380.86 206.83 C 382.51 206.25 382.14 204.35 382.26 202.99 C 382.24 181.08 382.26 159.16 382.25 137.25 C 362.99 137.27 343.74 137.22 324.49 137.27 C 324.59 160.24 324.35 183.21 324.61 206.17 C 328.21 208.20 331.79 210.28 335.43 212.24 C 335.57 217.24 335.48 222.25 335.50 227.25 C 300.58 227.25 265.67 227.25 230.75 227.25 C 230.75 222.27 230.75 217.28 230.75 212.30 C 234.38 210.18 238.10 208.21 241.71 206.06 C 241.81 153.69 241.70 101.31 241.77 48.94 C 241.78 47.51 241.56 46.09 241.30 44.69 C 239.52 44.70 237.76 44.73 236.00 44.81 C 235.25 81.03 236.28 117.31 235.44 153.54 C 234.55 170.94 230.88 189.51 218.76 202.78 C 205.70 217.15 186.58 223.98 167.93 227.42 C 148.49 230.85 128.63 231.37 108.96 230.21 C 90.29 228.94 71.34 225.84 54.38 217.58 C 41.96 211.83 31.03 202.25 25.21 189.71 C 19.70 177.62 17.77 164.21 17.26 151.03 C 17.25 111.35 17.24 71.67 17.27 32.00 C 17.08 30.56 17.52 28.75 16.59 27.55 C 13.48 25.59 10.18 23.94 7.00 22.09 C 7.00 16.98 7.00 11.86 7.00 6.75 M 20.82 17.41 C 25.07 19.63 27.91 24.07 27.75 28.92 C 27.75 65.29 27.75 101.66 27.74 138.02 C 27.73 151.15 28.11 164.49 31.94 177.15 C 33.66 183.11 36.31 188.88 40.25 193.71 C 45.32 200.17 52.34 204.77 59.68 208.28 C 71.14 213.74 83.66 216.56 96.18 218.25 C 113.50 220.39 131.03 220.52 148.41 219.18 C 164.34 217.79 180.50 214.91 194.87 207.58 C 205.46 202.21 214.75 193.50 219.08 182.26 C 223.95 170.16 224.82 156.94 225.01 144.03 C 224.98 112.37 225.04 80.70 224.97 49.04 C 224.83 45.42 225.33 41.58 227.63 38.64 C 231.42 33.48 238.81 32.97 244.51 34.68 C 249.68 36.36 252.59 41.87 252.49 47.11 C 252.52 97.73 252.48 148.36 252.51 198.99 C 252.49 202.97 252.89 207.18 251.08 210.88 C 250.04 213.40 247.65 214.89 245.61 216.53 C 270.68 216.49 295.74 216.46 320.80 216.54 C 316.74 214.07 313.65 209.90 313.79 204.97 C 313.67 178.83 313.81 152.69 313.73 126.54 C 340.14 126.43 366.56 126.54 392.98 126.49 C 393.01 152.34 393.03 178.19 392.97 204.04 C 393.17 209.23 390.34 214.05 385.84 216.56 C 410.98 216.46 436.12 216.45 461.25 216.57 C 457.11 214.18 454.04 209.91 454.26 204.97 C 454.23 153.99 454.27 103.00 454.24 52.02 C 454.29 47.88 454.52 43.67 455.84 39.72 C 456.71 37.17 459.04 34.50 462.02 35.09 C 466.72 36.27 468.72 41.25 470.81 45.11 C 493.79 94.77 516.82 144.42 539.78 194.10 C 541.81 199.01 544.79 204.41 542.95 209.85 C 542.14 212.71 539.86 214.71 537.67 216.55 C 556.70 216.47 575.73 216.45 594.77 216.56 C 592.43 214.83 590.08 212.82 589.27 209.92 C 587.50 204.44 590.43 199.05 592.46 194.10 C 610.75 154.53 629.08 114.98 647.41 75.42 C 654.32 60.65 660.95 45.74 668.09 31.07 C 670.67 26.07 672.88 20.30 678.08 17.42 C 651.93 17.57 625.78 17.52 599.64 17.45 C 601.93 19.37 604.63 21.28 605.37 24.37 C 606.61 29.28 604.48 34.17 602.78 38.69 C 591.08 66.60 579.28 94.48 567.57 122.39 C 555.82 95.08 544.45 67.61 532.82 40.25 C 530.90 35.26 528.27 29.92 529.61 24.44 C 530.33 21.31 533.05 19.36 535.40 17.45 C 485.62 17.52 435.83 17.57 386.06 17.43 C 387.88 18.74 389.87 20.01 391.01 22.02 C 393.18 25.62 393.00 29.97 393.02 34.01 C 392.98 52.01 393.01 70.00 393.00 88.00 C 366.58 88.00 340.17 88.00 313.75 88.00 C 313.77 68.34 313.70 48.68 313.78 29.03 C 313.58 24.19 316.48 20.04 320.37 17.46 C 267.10 17.55 213.84 17.50 160.58 17.48 C 162.57 19.14 164.87 20.67 165.95 23.13 C 167.66 26.84 167.21 31.03 167.26 35.00 C 167.24 65.33 167.26 95.65 167.25 125.97 C 166.90 135.74 166.71 145.81 163.02 155.01 C 159.28 165.03 151.53 173.71 141.48 177.65 C 131.34 181.88 119.29 180.86 109.91 175.18 C 100.98 169.96 94.80 160.85 91.98 151.01 C 88.96 140.60 89.42 129.66 89.01 118.95 C 88.98 90.32 89.02 61.69 88.99 33.06 C 89.11 29.33 89.03 25.32 91.05 22.03 C 92.21 20.01 94.21 18.72 96.06 17.40 C 70.98 17.58 45.90 17.56 20.82 17.41 Z" />
</g>
<g id="#ed1c24ff">
<path fill="#ed1c24" opacity="1.00" d=" M 20.82 17.41 C 45.90 17.56 70.98 17.58 96.06 17.40 C 94.21 18.72 92.21 20.01 91.05 22.03 C 89.03 25.32 89.11 29.33 88.99 33.06 C 89.02 61.69 88.98 90.32 89.01 118.95 C 89.42 129.66 88.96 140.60 91.98 151.01 C 94.80 160.85 100.98 169.96 109.91 175.18 C 119.29 180.86 131.34 181.88 141.48 177.65 C 151.53 173.71 159.28 165.03 163.02 155.01 C 166.71 145.81 166.90 135.74 167.25 125.97 C 167.26 95.65 167.24 65.33 167.26 35.00 C 167.21 31.03 167.66 26.84 165.95 23.13 C 164.87 20.67 162.57 19.14 160.58 17.48 C 213.84 17.50 267.10 17.55 320.37 17.46 C 316.48 20.04 313.58 24.19 313.78 29.03 C 313.70 48.68 313.77 68.34 313.75 88.00 C 340.17 88.00 366.58 88.00 393.00 88.00 C 393.01 70.00 392.98 52.01 393.02 34.01 C 393.00 29.97 393.18 25.62 391.01 22.02 C 389.87 20.01 387.88 18.74 386.06 17.43 C 435.83 17.57 485.62 17.52 535.40 17.45 C 533.05 19.36 530.33 21.31 529.61 24.44 C 528.27 29.92 530.90 35.26 532.82 40.25 C 544.45 67.61 555.82 95.08 567.57 122.39 C 579.28 94.48 591.08 66.60 602.78 38.69 C 604.48 34.17 606.61 29.28 605.37 24.37 C 604.63 21.28 601.93 19.37 599.64 17.45 C 625.78 17.52 651.93 17.57 678.08 17.42 C 672.88 20.30 670.67 26.07 668.09 31.07 C 660.95 45.74 654.32 60.65 647.41 75.42 C 629.08 114.98 610.75 154.53 592.46 194.10 C 590.43 199.05 587.50 204.44 589.27 209.92 C 590.08 212.82 592.43 214.83 594.77 216.56 C 575.73 216.45 556.70 216.47 537.67 216.55 C 539.86 214.71 542.14 212.71 542.95 209.85 C 544.79 204.41 541.81 199.01 539.78 194.10 C 516.82 144.42 493.79 94.77 470.81 45.11 C 468.72 41.25 466.72 36.27 462.02 35.09 C 459.04 34.50 456.71 37.17 455.84 39.72 C 454.52 43.67 454.29 47.88 454.24 52.02 C 454.27 103.00 454.23 153.99 454.26 204.97 C 454.04 209.91 457.11 214.18 461.25 216.57 C 436.12 216.45 410.98 216.46 385.84 216.56 C 390.34 214.05 393.17 209.23 392.97 204.04 C 393.03 178.19 393.01 152.34 392.98 126.49 C 366.56 126.54 340.14 126.43 313.73 126.54 C 313.81 152.69 313.67 178.83 313.79 204.97 C 313.65 209.90 316.74 214.07 320.80 216.54 C 295.74 216.46 270.68 216.49 245.61 216.53 C 247.65 214.89 250.04 213.40 251.08 210.88 C 252.89 207.18 252.49 202.97 252.51 198.99 C 252.48 148.36 252.52 97.73 252.49 47.11 C 252.59 41.87 249.68 36.36 244.51 34.68 C 238.81 32.97 231.42 33.48 227.63 38.64 C 225.33 41.58 224.83 45.42 224.97 49.04 C 225.04 80.70 224.98 112.37 225.01 144.03 C 224.82 156.94 223.95 170.16 219.08 182.26 C 214.75 193.50 205.46 202.21 194.87 207.58 C 180.50 214.91 164.34 217.79 148.41 219.18 C 131.03 220.52 113.50 220.39 96.18 218.25 C 83.66 216.56 71.14 213.74 59.68 208.28 C 52.34 204.77 45.32 200.17 40.25 193.71 C 36.31 188.88 33.66 183.11 31.94 177.15 C 28.11 164.49 27.73 151.15 27.74 138.02 C 27.75 101.66 27.75 65.29 27.75 28.92 C 27.91 24.07 25.07 19.63 20.82 17.41 Z" />
</g>
</svg>
