<?xml version="1.0" encoding="utf-8"?>
<!-- Generator: Adobe Illustrator 18.0.0, SVG Export Plug-In . SVG Version: 6.00 Build 0)  -->
<!DOCTYPE svg PUBLIC "-//W3C//DTD SVG 1.1//EN" "http://www.w3.org/Graphics/SVG/1.1/DTD/svg11.dtd">
<svg version="1.1" id="Layer_1" xmlns="http://www.w3.org/2000/svg" xmlns:xlink="http://www.w3.org/1999/xlink" x="0px" y="0px"
	 width="486px" height="275px" viewBox="0 0 486 275" enable-background="new 0 0 486 275" xml:space="preserve">
<g id="_x23_f5894dff">
	<path fill="#F5894D" d="M182.4,0h44.2c9,1.3,17.2,7.1,21.2,15.2c15.9,31.8,32.1,63.4,47.9,95.2c6.3,12,12.1,24.3,18.4,36.4
		c2.7,5.4,7.2,9.5,12.4,12.6c-3.6,1.5-7.5,2.7-11.4,2.6c-13,0-26,0-39,0c-10.5-0.2-20.1-7.2-24.2-16.7c-15.6-31.4-31.8-62.5-47.2-94
		c-6.5-12.2-12.4-24.7-18.8-37c-2.6-5.1-7.2-8.5-11.6-11.9C176.8,1.3,179.5,0.5,182.4,0z"/>
</g>
<linearGradient id="SVGID_1_" gradientUnits="userSpaceOnUse" x1="346.0481" y1="8.667485e-10" x2="346.0481" y2="159.44">
	<stop  offset="0" style="stop-color:#F05423"/>
	<stop  offset="0.2" style="stop-color:#E55723"/>
	<stop  offset="0.5" style="stop-color:#F16223"/>
	<stop  offset="0.8" style="stop-color:#E65828"/>
	<stop  offset="1" style="stop-color:#D7252D"/>
</linearGradient>
<path fill="url(#SVGID_1_)" d="M393.6,15.1c-4-8.1-12.1-13.8-21-15.1h-7.2c-8.7,1.2-16.8,6.7-20.8,14.6
	c-16.3,31.9-32.5,64-48.9,95.9c6.3,12,12.1,24.3,18.4,36.4c2.7,5.4,7.2,9.5,12.4,12.6c5.7-2.7,10.3-7.5,13-13.1
	c17.9-35.4,35.8-70.7,53.7-106.1C397.4,32.6,397.4,22.9,393.6,15.1z"/>
<linearGradient id="SVGID_2_" gradientUnits="userSpaceOnUse" x1="154.2275" y1="162.0819" x2="154.2275" y2="2.4">
	<stop  offset="0" style="stop-color:#F05423"/>
	<stop  offset="0.2" style="stop-color:#E55723"/>
	<stop  offset="0.5" style="stop-color:#F16223"/>
	<stop  offset="0.8" style="stop-color:#E65828"/>
	<stop  offset="1" style="stop-color:#D7252D"/>
</linearGradient>
<path fill="url(#SVGID_2_)" d="M174.1,2.4c-5.8,2.7-10.6,7.5-13.4,13.3c-17.9,35.6-36,71.2-54,106.8c-2.9,5.4-3.3,11.7-2.3,17.7
	c1.7,8.6,7.7,16.1,15.7,19.6c8.4,3.7,18.8,3,26.4-2.2c4.2-2.7,7.6-6.7,9.7-11.3c16.1-31.6,32.3-63.3,48.3-95
	c-6.5-12.2-12.4-24.7-18.8-37C183.1,9.2,178.5,5.8,174.1,2.4z"/>
<g id="_x23_6d6e71ff">
	<path fill="#6D6E71" d="M289.2,186.1c2.1-0.8,6.7-1.5,6.8,1.7c0.1,8.7,0,17.5,0.1,26.2c0.1,1.1-0.1,2.1-0.6,3
		c2.7-3.8,5.6-7.7,9.9-9.9c6.1-3.3,13.9-3.6,20.3-0.7c6,3.1,7.6,10.3,7.7,16.5c0,10.6,0.1,21.3,0,31.9c-0.4,3.1-4.6,2.1-6.7,1.5
		c-0.3-1.5-0.6-3-0.5-4.5c0-9.7,0-19.3,0-29c-0.1-4.2-1.6-9.3-6-10.8c-7.7-2.6-16.7,1.4-20.7,8.3c-3,4.6-3.5,10.2-3.2,15.6
		c0,6.4,0.1,12.7-0.1,19.1c-0.3,2.4-3.3,2.1-5,1.9c-2.1,0.1-2.1-2.5-2.1-4c0-21,0-42,0-62.9C288.8,188.7,288.9,187.4,289.2,186.1z"
		/>
	<path fill="#6D6E71" d="M6.8,216.9c3.3-5.7,8.6-10.5,15.2-11.8c6.1-1.2,13.4-0.8,18,3.9c3.9,4.3,4.4,10.4,4.3,15.9
		c-0.2,10.3,0.3,20.7-0.2,31c-1.9,1.9-7.4,1.7-6.8-2c0-9.7,0-19.3,0-29c-0.2-4-0.6-8.6-3.8-11.5c-3.9-3.1-9.4-2.6-13.9-1
		c-7.1,2.6-11.9,9.9-12.4,17.4c-0.4,8.6,0.2,17.2-0.3,25.8c-1.5,2.2-4.7,1.3-6.8,0.4v-49.3c1.8-1.4,4.5-1.7,6.5-0.4
		C7.6,209.9,6.9,213.5,6.8,216.9z"/>
	<path fill="#6D6E71" d="M56,209c7.4-4.5,16.8-5.8,25-2.9c6.9,2.5,10.3,10.1,10.3,17c0,10.7,0.1,21.3-0.1,31.9
		c-0.5,3-4.7,2.3-6.6,1.2c-0.1-2.8-0.1-5.5,0-8.3c-2.7,3.2-5.1,6.9-9.2,8.5c-6.9,3.3-15.9,2-21.5-3.3c-6.2-6.2-4.8-17.9,2.7-22.5
		c8.1-5,18-5.2,27.2-5.1c0.8-4.8-0.7-10.8-5.4-13.2c-6.1-2.8-13.2-1.2-18.8,2C56.5,217,52.6,210.8,56,209 M62.4,234.2
		c-4.6,2.3-6.4,8.6-3.7,13c3.3,5.5,11.4,6.3,16.6,3.1c6.4-4,9.2-12,8.7-19.3C76.8,231,69,230.7,62.4,234.2z"/>
	<path fill="#6D6E71" d="M107.6,216.8c3.6-6.8,10.6-12,18.4-12.3c4.1,0.1,8.6,0.7,11.7,3.7c2.4,2.1,3.4,5.1,4.2,8.1
		c2.9-3.2,5.3-7.1,9.3-9.1c5.9-3.5,13.8-3.7,19.8-0.2c5,3.1,6.7,9.4,6.8,15c0,10.7,0,21.4,0,32c0.8,3.8-4.9,3.7-6.8,1.9
		c-0.6-10.9,0.1-21.9-0.3-32.8c-0.3-3.3-0.9-7-3.4-9.5c-3.2-3.1-8.3-3-12.3-1.6c-7.5,3-11.6,11.2-12,18.9c-0.1,7.7,0,15.4,0,23.1
		c0.6,4.3-7.9,4.2-7.2-0.1c0-10,0-20,0-30c-0.1-3.7-0.6-7.7-3.3-10.4c-3.1-2.8-7.8-2.8-11.6-1.7c-7.5,2.6-11.9,10.5-12.8,18.1
		c-0.2,8.1,0,16.1-0.1,24.2c0.6,4.3-8.1,4.1-7.2-0.1c0-15,0-30,0-45c-0.7-3.8,5.4-4.4,6.9-1.8C107.9,210.4,107.8,213.6,107.6,216.8z
		"/>
	<path fill="#6D6E71" d="M193.7,209.7c7.7-5.9,19.1-7.1,27.4-1.9c6.1,3.9,9,11.2,9.5,18.2c0.2,2,0.7,5-1.9,5.7
		c-12.4,0.2-24.9,0-37.3,0.1c0.2,5.6,2.3,11.5,6.6,15.2c6.5,6,17.1,6.2,24.3,1.4c1.2-0.7,2.2-1.7,3.7-2c2.3,0.6,3.3,3.2,2.9,5.5
		c-10.6,8.6-27.7,8.6-37.5-1.3C180.8,239.6,181.6,219.3,193.7,209.7 M197.8,214.8c-3.4,2.9-5.3,7.1-6,11.5c10.6,0,21.2,0,31.9,0
		c-0.6-4.3-1.6-8.9-4.9-12C213.1,208.8,203.4,209.6,197.8,214.8z"/>
	<path fill="#6D6E71" d="M255.5,205.6c8.7-2.4,18.7-0.8,25.5,5.3c1.3,1.6-0.4,3.4-1.3,4.7c-1.6,1.8-3.6-0.3-5.1-1.1
		c-6.5-4.6-15.7-4.6-22.2-0.1c-10.5,7-11.4,24-2.1,32.3c6.6,6.3,17.6,6.7,25,1.6c1.3-0.8,2.4-1.8,3.8-2.5c2-0.4,2.9,1.9,3.6,3.3
		c0.2,2.4-2.4,3.5-4,4.7c-11.2,7.4-27.9,5.6-36.4-5c-6.2-7.6-7.3-18.5-4-27.5C241.1,213.6,247.7,207.7,255.5,205.6z"/>
	<path fill="#6D6E71" d="M347.8,210.9c7.7-7,20.3-8.6,29.2-2.8c6.8,4.6,9.2,13.2,9.2,21c0.2,1.8-1.7,2.8-3.2,2.8c-12,0-24,0-36.1,0
		c0.1,7,3.5,14.2,9.8,17.5c7.1,4.1,16.3,3,22.7-1.9c2.6-2.8,6.3,2,4.7,4.6c-10,8.3-26,8.4-35.9-0.2
		C336.7,241.6,336.6,221.3,347.8,210.9 M354.1,214.1c-3.9,2.9-6,7.5-6.8,12.2c10.6-0.1,21.2,0,31.8,0c-0.4-4.9-2.1-10.1-6.2-13.1
		C367.4,209.1,359.3,210,354.1,214.1z"/>
	<path fill="#6D6E71" d="M395,209c7.3-4.4,16.8-5.8,24.9-3c6.6,2.3,10.1,9.4,10.3,16.1c0.2,10.6,0,21.2,0.1,31.8
		c0.5,3.8-4.5,3.7-6.7,2.1c-0.1-2.7-0.1-5.5,0-8.2c-2.6,3-4.8,6.5-8.5,8.2c-7,3.7-16.4,2.5-22.1-3c-6.2-6.2-4.8-17.9,2.7-22.4
		c8.1-5,18-5.2,27.2-5.1c0.7-4.8-0.7-10.8-5.5-13.1c-6.1-2.8-13.2-1.2-18.8,2C395.5,217,391.6,210.8,395,209 M400.7,234.7
		c-4.7,2.8-5.6,9.7-2.1,13.7c4,4.5,11.5,4.9,16.4,1.5c6-4.1,8.6-11.8,8.1-18.9C415.5,231,407.3,230.6,400.7,234.7z"/>
	<path fill="#6D6E71" d="M456,206.1c6.6-2.5,14.7-1.9,20.5,2.2c5.2,3.5,7.8,9.5,9.4,15.4v14.8c-1.8,9.1-8.4,17.8-17.9,19.3
		c-8,2-16.9-1.7-21.1-8.9c-0.2,8.7,0.3,17.4-0.2,26.1h-6.5c-0.6-22.3-0.1-44.7-0.2-67.1c0-2.9,4.1-2.5,5.9-1.7
		c1.2,2.4,0.4,5.4,0.6,8.1C449,210.9,452,207.6,456,206.1 M458.5,211.8c-7,2-11,9.2-11.5,16.1c-0.9,7.3,1,15.4,6.6,20.4
		c5,4.4,13,4.5,18.2,0.4c5-3.6,7.1-10,7.4-15.9c0.3-6.6-1.4-13.9-6.7-18.4C468.7,211.1,463.2,210.5,458.5,211.8z"/>
</g>
</svg>
