<?xml version="1.0" encoding="utf-8"?>
<!-- Generator: Adobe Illustrator 18.0.0, SVG Export Plug-In . SVG Version: 6.00 Build 0)  -->
<!DOCTYPE svg PUBLIC "-//W3C//DTD SVG 1.1//EN" "http://www.w3.org/Graphics/SVG/1.1/DTD/svg11.dtd">
<svg version="1.1" id="Layer_1" xmlns="http://www.w3.org/2000/svg" xmlns:xlink="http://www.w3.org/1999/xlink" x="0px" y="0px"
	 width="260px" height="61px" viewBox="0 0 260 61" enable-background="new 0 0 260 61" xml:space="preserve">
<g id="_x23_a0cc41ff">
	<path fill="#A0CC41" d="M2.7,1.6c2.8-2,6.8-0.6,10-0.9c-0.4,3.2-0.9,6.4-1.9,9.5c-3.1,1.4-6.9,0.4-10.2,0.5
		C1.2,7.7,1.6,4.5,2.7,1.6z"/>
	<path fill="#A0CC41" d="M18.9,1.8c1-1.8,3.5-0.9,5.1-1.2c14,0.3,27.9-0.4,41.9,0.3c-0.2,3.3-1.1,6.5-1.8,9.7
		c3.1,0.1,6.1,0.2,9.2,0.2c-2.7,13.4-6,26.7-8.9,40c-0.8,3.4-1.3,7-3,10.1H20.9c-0.3-3.9,1-7.7,1.8-11.5c2.9-12.7,5.8-25.5,8.7-38.2
		c-4.9-0.5-9.8-0.5-14.6-0.5C17.4,7.8,17.7,4.6,18.9,1.8 M45.7,32.7c-1.4,4-2.9,8-4.4,12c2.8,0,5.6,0,8.5,0c0.4-4,0.7-8,1-12
		c2.2-1.8,4.4-5,2.3-7.7C48.6,20.9,41.5,28.3,45.7,32.7z"/>
	<path fill="#A0CC41" d="M15.6,16.5c3.3-0.6,6.7-0.2,10-0.1c-0.7,3.3-1.1,6.7-2.5,9.8c-3.2,0.4-6.5,0.2-9.8,0.1
		C13.9,23,14.3,19.6,15.6,16.5z"/>
</g>
<g id="_x23_ffffffff">
	<path fill="#2D2D2D" d="M160.9,0.5c5.9-0.2,11.9-0.1,17.9-0.1c-2.8,14.3-5.5,28.6-8.4,43c5.5,0,10.9,0,16.4,0
		c-1.1,5.3-2.1,10.7-3.1,16c-11.3,0-22.6,0-33.9,0c0.9-3.8,1-7.9,3.2-11.3c3.1-5.5,4.2-12,2.6-18.1c0.8-5.9,2.4-11.6,3.2-17.5
		c0.3-2.8,1.9-5.1,3.3-7.5C160.6,3.9,160.5,2.2,160.9,0.5z"/>
	<path fill="#2D2D2D" d="M93.8,3.6c8.8-3.5,18.9-2,27.1,2.5c-2.7,4.7-5.4,9.3-8.1,14c-3.7-2.6-8.2-5.4-12.9-4.1
		c-2.3,0.6-3.8,4-1.4,5.4c4.3,2.1,9.6,2.4,13.2,5.9c4.4,3.5,4.8,9.8,3.1,14.8c-2.1,8.2-8.8,15-16.9,17.4c-9.4,3.1-20.7,1.2-27.7-5.9
		c2.6-4.9,5-9.9,7.5-14.9c3.6,4.6,9,9,15.2,7.9c2.4-0.4,6.1-3.7,3.6-5.9C91.9,38,86.1,37.8,82,34.1c-4-3.6-4.7-9.6-3.2-14.6
		C81,12.3,86.7,6.2,93.8,3.6z"/>
	<path fill="#2D2D2D" d="M125.5,6.5c9.4-6.7,22.7-6.1,32.5-0.4c-2.7,4.7-5.4,9.3-8.1,13.9c-3.2-2.2-6.8-4.6-10.9-4.4
		c-2.2-0.2-4.1,1.3-4.8,3.4c0.3,2.9,3.7,3.3,5.8,4c5.3,1.2,11.1,4.3,12.5,10c1.3,8.1-2.5,16.6-8.8,21.7c-9.2,7.6-23.2,8-33.2,1.6
		c3.9-3.7,6.9-8.2,8.5-13.3c3.6,2.6,8.4,5,12.8,2.7c1.7-0.7,2.3-2.6,3.1-4.1c-4-3.7-10-3.4-14.4-6.5c-0.4-4.3-2.3-8.3-5.6-11.2
		C118.7,18.4,121.6,12.1,125.5,6.5z"/>
	<path fill="#2D2D2D" d="M200.2,45.2c4-2.4,9.3-1.2,12.5,2c-1.1,0.7-2.3,1.5-3.4,2.2c-2.1-1.7-5.3-2.8-7.5-0.5
		c-2.9,2.2-1.5,7.5,2.2,7.8c2,0.5,3.7-0.7,5.3-1.7c0.9,0.7,1.9,1.4,2.8,2.1c-3,4.7-11.1,4.6-14.4,0.1
		C194.9,53.5,196.1,47.3,200.2,45.2z"/>
	<path fill="#2D2D2D" d="M220.5,44.6c4.1-2,9.5,0.2,11.1,4.4c1.8,4-0.4,9.4-4.7,10.8c-4.5,2.2-10.4-1-11.2-5.8
		C214.8,50.3,216.9,46.1,220.5,44.6 M221.3,48.6c-2.9,2.2-1.8,7.4,1.8,8c2.7,0.6,5.2-2,4.9-4.6C228.2,48.7,223.9,46.3,221.3,48.6z"
		/>
	<path fill="#2D2D2D" d="M235.6,44.1c1.6,0.2,3.3,0.4,4.9,0.7c3-1.2,6.2-1,8.7,1.2c2.1-1.2,4.4-2.8,6.8-1.9c2.1,0.4,3.2,2.4,3.9,4.3
		v11.5c-1.4,0-2.9,0-4.3,0c-0.2-3.7,0.4-7.4-0.5-11c-1.3-2.4-4.6-0.8-5.2,1.3c-0.7,3.2-0.3,6.4-0.3,9.6c-1.4,0.1-2.7,0.3-4.1,0.4
		c-0.3-3.7,0.7-7.7-0.6-11.3c-1.6-2.7-5-0.5-5.2,2c-0.4,3-0.3,6-0.3,9c-1.3,0-2.7,0-4,0C235.6,54.6,235.5,49.3,235.6,44.1z"/>
	<path fill="#2D2D2D" d="M190.4,55.8c2,0,3.3,2.8,1.5,3.9c-1.1,1.8-2.9-0.3-4.1-0.8C188.3,57.8,188.7,55.7,190.4,55.8z"/>
</g>
</svg>
