<?xml version="1.0" encoding="UTF-8" ?>
<!DOCTYPE svg PUBLIC "-//W3C//DTD SVG 1.1//EN" "http://www.w3.org/Graphics/SVG/1.1/DTD/svg11.dtd">
<svg width="605pt" height="72pt" viewBox="0 0 605 72" version="1.1" xmlns="http://www.w3.org/2000/svg">
<g id="#00bcddff">
<path fill="#00bcdd" opacity="1.00" d=" M 11.45 0.00 L 12.29 0.00 C 14.06 0.63 16.11 1.53 16.68 3.51 C 17.64 6.12 15.88 8.57 14.84 10.84 C 8.97 21.64 9.38 35.66 16.07 46.00 C 16.77 47.77 19.67 47.15 19.52 45.18 C 18.32 41.40 16.17 37.94 15.42 34.00 C 13.78 26.28 15.00 17.81 19.30 11.13 C 21.29 7.81 26.77 8.33 28.26 11.84 C 29.60 14.50 27.65 17.18 26.81 19.66 C 24.07 25.89 24.85 33.56 29.09 38.95 C 29.63 38.41 30.73 37.33 31.27 36.79 C 30.20 32.45 28.34 28.00 29.65 23.48 C 30.17 20.20 32.91 16.57 36.61 17.48 C 39.46 18.14 39.30 21.73 39.56 24.03 C 39.58 40.02 39.55 56.01 39.56 72.00 L 39.41 72.00 C 27.58 70.52 16.44 64.24 9.36 54.60 C 3.52 47.06 0.42 37.65 0.00 28.16 L 0.00 26.66 C 0.29 20.10 1.66 13.55 4.52 7.61 C 6.04 4.51 7.68 0.76 11.45 0.00 M 5.38 14.54 C 1.30 26.93 3.57 41.14 11.24 51.68 C 17.10 60.10 26.27 65.92 36.25 68.17 C 36.11 52.20 36.55 36.22 36.00 20.25 C 34.05 21.12 32.80 22.99 32.68 25.12 C 31.75 29.19 34.38 32.87 34.57 36.84 C 34.35 40.37 30.16 42.58 27.06 41.07 C 24.48 39.31 23.65 36.10 22.76 33.29 C 21.04 27.07 22.46 20.50 25.18 14.79 C 26.52 12.97 22.82 10.72 22.06 13.01 C 16.77 21.44 16.74 32.70 21.71 41.29 C 23.41 43.84 23.34 47.75 20.47 49.42 C 17.82 51.39 14.20 49.78 12.67 47.19 C 5.72 35.22 5.58 19.58 12.72 7.64 C 14.13 5.94 13.61 4.12 12.09 2.72 C 8.52 5.72 6.84 10.25 5.38 14.54 Z" />
<path fill="#00bcdd" opacity="1.00" d=" M 77.27 0.00 L 77.84 0.00 C 81.61 0.43 83.40 4.04 84.88 7.07 C 91.25 19.88 91.13 35.75 84.28 48.35 C 77.71 61.16 64.70 70.25 50.40 72.00 L 50.12 72.00 C 50.24 55.17 49.75 38.31 50.34 21.51 C 50.06 17.24 55.50 16.03 57.92 19.05 C 62.06 24.28 60.15 31.30 58.28 37.03 C 58.74 37.42 59.66 38.20 60.11 38.58 C 64.02 35.82 64.49 30.41 64.38 26.02 C 64.33 21.68 61.64 18.03 60.91 13.87 C 60.81 9.25 67.53 7.02 70.15 10.85 C 74.79 17.80 76.01 26.81 74.04 34.87 C 73.15 38.74 70.92 42.13 69.96 45.97 C 71.01 46.89 73.04 47.66 73.69 45.88 C 80.23 35.63 80.67 21.86 74.97 11.13 C 73.84 8.69 71.86 6.01 73.09 3.22 C 73.71 1.39 75.63 0.64 77.27 0.00 M 77.06 7.91 C 82.98 17.95 83.87 30.63 79.65 41.47 C 78.36 44.58 77.24 48.42 73.87 49.88 C 70.26 51.68 65.80 47.69 66.91 43.87 C 67.64 41.45 69.11 39.34 69.93 36.96 C 72.86 29.04 71.97 19.76 67.38 12.64 C 66.09 11.05 63.31 13.08 64.48 14.82 C 67.50 21.09 68.85 28.51 66.30 35.18 C 65.39 38.01 63.69 41.94 60.07 41.51 C 56.41 41.53 54.04 37.34 55.52 34.11 C 57.26 29.59 58.38 23.70 54.26 20.05 C 53.55 21.94 53.35 23.97 53.39 25.98 C 53.42 40.04 53.40 54.10 53.41 68.16 C 65.87 65.47 76.83 56.85 82.19 45.27 C 87.60 34.22 87.57 20.80 82.41 9.66 C 81.26 7.30 80.18 4.73 77.96 3.14 C 75.26 3.59 75.87 6.29 77.06 7.91 Z" />
</g>
<g id="#1e252bff">
<path fill="#1e252b" opacity="1.00" d=" M 371.36 15.43 C 374.96 10.67 381.23 9.03 386.95 8.98 C 392.18 8.99 397.97 10.37 401.43 14.59 C 404.13 17.80 404.70 22.10 405.11 26.11 C 401.65 26.13 398.18 26.13 394.72 26.14 C 394.05 23.44 394.00 20.12 391.52 18.34 C 387.50 15.45 380.28 16.41 378.80 21.71 C 377.05 28.27 377.43 35.20 377.68 41.93 C 378.01 45.91 378.24 50.86 381.97 53.26 C 385.10 54.85 389.64 54.96 392.10 52.10 C 394.02 49.92 394.24 46.89 394.93 44.18 C 398.54 44.18 402.16 44.18 405.78 44.21 C 405.37 48.10 404.86 52.22 402.47 55.47 C 399.46 59.82 394.07 61.75 388.98 62.08 C 382.59 62.53 375.45 60.92 371.30 55.67 C 367.07 50.44 366.64 43.42 366.48 36.98 C 366.52 29.62 366.71 21.55 371.36 15.43 Z" />
<path fill="#1e252b" opacity="1.00" d=" M 103.81 10.12 C 116.89 10.13 129.97 10.10 143.05 10.14 C 143.06 13.12 143.06 16.11 143.06 19.09 C 138.30 19.09 133.54 19.09 128.78 19.09 C 128.78 33.29 128.79 47.49 128.78 61.69 C 125.22 61.69 121.66 61.69 118.09 61.69 C 118.08 47.49 118.09 33.29 118.09 19.10 C 113.33 19.09 108.57 19.09 103.81 19.09 C 103.81 16.10 103.81 13.11 103.81 10.12 Z" />
<path fill="#1e252b" opacity="1.00" d=" M 150.18 10.12 C 153.75 10.12 157.31 10.12 160.88 10.12 C 160.88 17.14 160.87 24.16 160.88 31.18 C 167.03 31.19 173.19 31.19 179.34 31.18 C 179.34 24.16 179.34 17.14 179.34 10.13 C 182.87 10.12 186.40 10.12 189.92 10.13 C 190.16 27.31 189.97 44.50 190.03 61.69 C 186.46 61.69 182.90 61.69 179.34 61.69 C 179.34 54.49 179.34 47.29 179.34 40.09 C 173.19 40.09 167.03 40.09 160.88 40.09 C 160.88 47.29 160.88 54.49 160.87 61.69 C 157.31 61.69 153.75 61.69 150.19 61.69 C 150.18 44.50 150.19 27.31 150.18 10.12 Z" />
<path fill="#1e252b" opacity="1.00" d=" M 215.13 10.12 C 217.92 10.11 220.71 10.12 223.50 10.14 C 230.11 27.33 236.79 44.50 243.40 61.69 C 239.69 61.69 235.99 61.69 232.28 61.69 C 231.21 58.65 230.13 55.61 229.06 52.56 C 222.59 52.56 216.13 52.57 209.66 52.56 C 208.55 55.60 207.45 58.64 206.35 61.68 C 202.64 61.69 198.93 61.69 195.22 61.69 C 201.86 44.50 208.49 27.31 215.13 10.12 M 212.66 44.05 C 217.19 44.06 221.71 44.06 226.24 44.05 C 224.01 37.82 221.78 31.59 219.54 25.36 C 217.23 31.59 214.95 37.82 212.66 44.05 Z" />
<path fill="#1e252b" opacity="1.00" d=" M 248.66 10.12 C 252.22 10.12 255.78 10.12 259.34 10.12 C 259.35 24.31 259.34 38.50 259.34 52.69 C 266.68 52.69 274.02 52.68 281.36 52.70 C 281.37 55.69 281.38 58.69 281.38 61.68 C 270.47 61.69 259.56 61.70 248.65 61.68 C 248.66 44.49 248.65 27.31 248.66 10.12 Z" />
<path fill="#1e252b" opacity="1.00" d=" M 287.00 10.12 C 290.52 10.12 294.04 10.12 297.56 10.14 C 302.27 19.44 307.04 28.71 311.78 37.99 C 316.52 28.71 321.24 19.41 325.98 10.12 C 329.45 10.12 332.93 10.12 336.42 10.12 C 336.61 27.31 336.45 44.50 336.51 61.68 C 332.94 61.69 329.38 61.69 325.82 61.69 C 325.81 51.68 325.82 41.67 325.81 31.65 C 322.31 38.16 318.89 44.70 315.38 51.20 C 312.97 51.19 310.58 51.18 308.18 51.18 C 304.69 44.68 301.23 38.17 297.70 31.69 C 297.67 41.69 297.70 51.69 297.69 61.69 C 294.13 61.69 290.56 61.69 287.00 61.69 C 287.00 44.50 287.00 27.31 287.00 10.12 Z" />
<path fill="#1e252b" opacity="1.00" d=" M 347.72 10.12 C 351.24 10.12 354.77 10.12 358.29 10.12 C 358.48 27.31 358.32 44.49 358.38 61.68 C 354.83 61.69 351.27 61.69 347.72 61.69 C 347.71 44.50 347.72 27.31 347.72 10.12 Z" />
<path fill="#1e252b" opacity="1.00" d=" M 416.81 10.12 C 418.76 10.12 420.71 10.12 422.66 10.13 C 422.65 25.66 422.66 41.20 422.65 56.74 C 431.12 56.76 439.58 56.74 448.05 56.75 C 454.16 41.23 460.15 25.66 466.22 10.12 C 467.86 10.12 469.50 10.12 471.15 10.12 C 477.82 27.31 484.49 44.50 491.18 61.68 C 489.11 61.69 487.04 61.69 484.98 61.69 C 483.51 57.80 482.05 53.91 480.61 50.01 C 472.65 49.99 464.69 50.01 456.72 50.00 C 455.25 53.90 453.78 57.80 452.36 61.72 C 440.51 61.80 428.66 61.61 416.82 61.69 C 416.81 44.50 416.81 27.31 416.81 10.12 M 458.48 45.21 C 465.28 45.22 472.09 45.21 478.90 45.22 C 475.54 36.14 472.16 27.08 468.78 18.01 C 465.34 27.07 461.90 36.14 458.48 45.21 Z" />
<path fill="#1e252b" opacity="1.00" d=" M 498.46 10.13 C 505.88 10.21 513.30 9.92 520.72 10.27 C 526.39 10.60 532.67 13.67 534.40 19.45 C 536.46 25.62 533.26 32.57 527.40 35.23 C 529.78 36.54 532.26 37.95 533.75 40.32 C 537.71 46.18 535.94 55.11 529.96 58.93 C 526.14 61.45 521.40 61.68 516.97 61.69 C 510.80 61.70 504.63 61.68 498.47 61.69 C 498.46 44.50 498.47 27.31 498.46 10.13 M 504.31 15.04 C 504.31 21.00 504.31 26.97 504.31 32.93 C 511.19 32.43 518.68 34.32 525.12 31.20 C 531.09 28.12 530.39 18.22 524.04 16.03 C 517.66 14.15 510.86 15.36 504.31 15.04 M 504.31 37.85 C 504.31 44.15 504.31 50.45 504.31 56.75 C 510.21 56.56 516.18 57.22 522.05 56.33 C 526.85 55.64 530.98 50.90 529.96 45.93 C 529.51 41.50 525.34 38.27 521.06 38.02 C 515.48 37.61 509.89 37.95 504.31 37.85 Z" />
<path fill="#1e252b" opacity="1.00" d=" M 550.23 12.30 C 558.75 7.79 569.74 9.37 577.24 15.24 C 576.00 16.44 574.76 17.63 573.52 18.82 C 569.11 15.59 563.54 13.74 558.06 14.75 C 554.12 15.24 550.21 18.01 549.51 22.11 C 548.62 25.42 550.03 29.24 553.14 30.84 C 559.95 34.24 568.49 32.55 574.79 37.21 C 581.46 42.15 581.04 53.67 574.05 58.14 C 564.40 64.64 550.60 62.77 541.95 55.35 C 543.26 54.10 544.57 52.85 545.90 51.60 C 552.46 57.23 562.95 59.40 570.43 54.40 C 575.10 50.92 574.85 42.09 568.96 39.99 C 561.92 37.46 553.37 38.77 547.38 33.56 C 541.00 27.85 542.76 16.26 550.23 12.30 Z" />
<path fill="#1e252b" opacity="1.00" d=" M 583.61 11.29 C 585.98 9.02 589.59 10.34 592.52 10.02 L 592.56 11.60 C 591.77 11.61 590.18 11.64 589.39 11.65 C 589.38 14.75 589.37 17.86 589.36 20.96 C 588.89 20.94 587.95 20.88 587.49 20.86 C 587.49 17.82 587.49 14.78 587.50 11.74 C 586.52 11.62 584.58 11.40 583.61 11.29 Z" />
<path fill="#1e252b" opacity="1.00" d=" M 593.54 9.97 C 594.24 10.01 595.65 10.07 596.36 10.10 C 597.30 12.89 598.28 15.66 599.25 18.44 C 600.26 15.67 601.27 12.89 602.26 10.12 C 602.95 10.07 604.32 9.98 605.00 9.93 L 605.00 20.96 C 604.52 20.93 603.55 20.87 603.07 20.83 C 603.07 18.06 603.09 15.29 603.16 12.53 C 601.97 15.72 600.63 18.87 598.91 21.82 C 597.56 18.71 596.38 15.52 595.29 12.31 C 595.31 15.16 595.30 18.02 595.31 20.87 L 593.54 20.96 C 593.53 17.30 593.53 13.64 593.54 9.97 Z" />
</g>
</svg>
